<svg width="302" height="21" viewBox="0 0 302 21" fill="none" xmlns="http://www.w3.org/2000/svg">
<path d="M5.62 16.22C4.63333 16.22 3.78 16.0067 3.06 15.58C2.34 15.14 1.78667 14.5267 1.4 13.74C1.02667 12.94 0.84 12.0133 0.84 10.96C0.84 9.94667 1.03333 9.05333 1.42 8.28C1.82 7.50667 2.36 6.90667 3.04 6.48C3.72 6.05333 4.48 5.84 5.32 5.84C6.06667 5.84 6.70667 5.97333 7.24 6.24C7.77333 6.49333 8.22667 6.88 8.6 7.4H8.64V5.42C8.64 4.76667 8.52667 4.2 8.3 3.72C8.07333 3.24 7.75333 2.88 7.34 2.64C6.92667 2.38667 6.44 2.26 5.88 2.26C5.34667 2.26 4.87333 2.35333 4.46 2.54C4.06 2.71333 3.74 2.96667 3.5 3.3C3.27333 3.63333 3.14667 4.01333 3.12 4.44H1.34C1.36667 3.77333 1.56667 3.16 1.94 2.6C2.31333 2.04 2.83333 1.59333 3.5 1.26C4.18 0.926666 4.96667 0.76 5.86 0.76C6.80667 0.76 7.62 0.953333 8.3 1.34C8.98 1.71333 9.49333 2.24667 9.84 2.94C10.2 3.63333 10.38 4.44667 10.38 5.38V10.96C10.38 12.0133 10.1867 12.94 9.8 13.74C9.42667 14.5267 8.88 15.14 8.16 15.58C7.45333 16.0067 6.60667 16.22 5.62 16.22ZM5.62 14.72C6.24667 14.72 6.79333 14.56 7.26 14.24C7.72667 13.92 8.08 13.4867 8.32 12.94C8.57333 12.38 8.7 11.7533 8.7 11.06C8.7 9.86 8.42667 8.94 7.88 8.3C7.34667 7.66 6.58667 7.34 5.6 7.34C4.97333 7.34 4.43333 7.5 3.98 7.82C3.54 8.12667 3.20667 8.56 2.98 9.12C2.75333 9.66667 2.64 10.3133 2.64 11.06C2.64 11.7667 2.75333 12.4 2.98 12.96C3.22 13.5067 3.56 13.94 4 14.26C4.45333 14.5667 4.99333 14.72 5.62 14.72ZM18.3434 16C18.7701 15.1733 19.0901 14.3733 19.3034 13.6C19.5168 12.8267 19.6234 11.9467 19.6234 10.96C19.6234 9.88 19.3968 8.99333 18.9434 8.3C18.5034 7.60667 17.8234 7.26 16.9034 7.26C15.9834 7.26 15.2968 7.60667 14.8434 8.3C14.3901 8.99333 14.1634 9.88 14.1634 10.96C14.1634 11.9333 14.2701 12.8067 14.4834 13.58C14.6968 14.3533 15.0168 15.16 15.4434 16H13.6634C13.2368 15.24 12.9101 14.4667 12.6834 13.68C12.4701 12.88 12.3634 11.9733 12.3634 10.96C12.3634 9.88 12.5501 8.95333 12.9234 8.18C13.2968 7.39333 13.8234 6.79333 14.5034 6.38C15.1968 5.96667 15.9968 5.76 16.9034 5.76C17.8101 5.76 18.6034 5.96667 19.2834 6.38C19.9768 6.79333 20.5101 7.39333 20.8834 8.18C21.2568 8.95333 21.4434 9.88 21.4434 10.96C21.4434 11.9733 21.3301 12.8733 21.1034 13.66C20.8768 14.4467 20.5501 15.2267 20.1234 16H18.3434ZM27.9452 16.24C26.9985 16.24 26.1852 16.0533 25.5052 15.68C24.8385 15.3067 24.3252 14.7667 23.9652 14.06C23.6052 13.34 23.4252 12.4867 23.4252 11.5V0.999999H25.1652V11.4C25.1652 12.0533 25.2718 12.6333 25.4852 13.14C25.6985 13.6467 26.0118 14.04 26.4252 14.32C26.8385 14.6 27.3452 14.74 27.9452 14.74C28.5452 14.74 29.0518 14.6133 29.4652 14.36C29.8785 14.0933 30.1852 13.7467 30.3852 13.32C30.5985 12.8933 30.7052 12.42 30.7052 11.9C30.7052 11.3533 30.6185 10.8867 30.4452 10.5C30.2852 10.1133 30.0452 9.72667 29.7252 9.34L29.4252 8.98C29.1452 8.66 28.9252 8.38 28.7652 8.14C28.6052 7.9 28.4585 7.60667 28.3252 7.26C28.2052 6.9 28.1385 6.48 28.1252 6H29.9252C29.9385 6.34667 29.9985 6.66 30.1052 6.94C30.2252 7.20667 30.3585 7.44 30.5052 7.64C30.6652 7.84 30.8852 8.10667 31.1652 8.44C31.5918 8.94667 31.9252 9.47333 32.1652 10.02C32.4052 10.5533 32.5252 11.24 32.5252 12.08C32.5252 12.84 32.3252 13.54 31.9252 14.18C31.5385 14.8067 30.9918 15.3067 30.2852 15.68C29.5918 16.0533 28.8118 16.24 27.9452 16.24ZM38.4603 16.24C37.5136 16.24 36.7136 16.06 36.0603 15.7C35.407 15.34 34.9136 14.8533 34.5803 14.24C34.247 13.6133 34.0803 12.9067 34.0803 12.12C34.0803 11.56 34.1803 11 34.3803 10.44H36.1403C35.967 10.96 35.8803 11.4533 35.8803 11.92C35.8803 12.4533 35.9736 12.9333 36.1603 13.36C36.347 13.7867 36.6336 14.1267 37.0203 14.38C37.4203 14.62 37.9003 14.74 38.4603 14.74C39.0203 14.74 39.4936 14.62 39.8803 14.38C40.267 14.1267 40.5536 13.8 40.7403 13.4C40.9403 12.9867 41.0403 12.54 41.0403 12.06C41.0403 11.58 40.9536 11.1533 40.7803 10.78C40.607 10.4067 40.387 10.0867 40.1203 9.82C39.867 9.55333 39.527 9.24 39.1003 8.88C38.6603 8.50667 38.3203 8.19333 38.0803 7.94C37.8403 7.67333 37.6336 7.36 37.4603 7C37.287 6.64 37.2003 6.22667 37.2003 5.76H39.0403C39.0803 6.06667 39.1736 6.35333 39.3203 6.62C39.4803 6.87333 39.6603 7.10667 39.8603 7.32C40.0736 7.52 40.347 7.76 40.6803 8.04C41.147 8.45333 41.5203 8.82 41.8003 9.14C42.0936 9.46 42.3403 9.86 42.5403 10.34C42.7403 10.82 42.8403 11.3867 42.8403 12.04C42.8403 12.7733 42.667 13.46 42.3203 14.1C41.9736 14.74 41.467 15.26 40.8003 15.66C40.147 16.0467 39.367 16.24 38.4603 16.24ZM49.2919 16.22C48.3052 16.22 47.4519 16.0067 46.7319 15.58C46.0119 15.14 45.4585 14.5267 45.0719 13.74C44.6985 12.94 44.5119 12.0133 44.5119 10.96C44.5119 9.94667 44.7052 9.05333 45.0919 8.28C45.4919 7.50667 46.0319 6.90667 46.7119 6.48C47.3919 6.05333 48.1519 5.84 48.9919 5.84C49.7385 5.84 50.3785 5.97333 50.9119 6.24C51.4452 6.49333 51.8985 6.88 52.2719 7.4H52.3119V5.42C52.3119 4.76667 52.1985 4.2 51.9719 3.72C51.7452 3.24 51.4252 2.88 51.0119 2.64C50.5985 2.38667 50.1119 2.26 49.5519 2.26C49.0185 2.26 48.5452 2.35333 48.1319 2.54C47.7319 2.71333 47.4119 2.96667 47.1719 3.3C46.9452 3.63333 46.8185 4.01333 46.7919 4.44H45.0119C45.0385 3.77333 45.2385 3.16 45.6119 2.6C45.9852 2.04 46.5052 1.59333 47.1719 1.26C47.8519 0.926666 48.6385 0.76 49.5319 0.76C50.4785 0.76 51.2919 0.953333 51.9719 1.34C52.6519 1.71333 53.1652 2.24667 53.5119 2.94C53.8719 3.63333 54.0519 4.44667 54.0519 5.38V10.96C54.0519 12.0133 53.8585 12.94 53.4719 13.74C53.0985 14.5267 52.5519 15.14 51.8319 15.58C51.1252 16.0067 50.2785 16.22 49.2919 16.22ZM49.2919 14.72C49.9185 14.72 50.4652 14.56 50.9319 14.24C51.3985 13.92 51.7519 13.4867 51.9919 12.94C52.2452 12.38 52.3719 11.7533 52.3719 11.06C52.3719 9.86 52.0985 8.94 51.5519 8.3C51.0185 7.66 50.2585 7.34 49.2719 7.34C48.6452 7.34 48.1052 7.5 47.6519 7.82C47.2119 8.12667 46.8785 8.56 46.6519 9.12C46.4252 9.66667 46.3119 10.3133 46.3119 11.06C46.3119 11.7667 46.4252 12.4 46.6519 12.96C46.8919 13.5067 47.2319 13.94 47.6719 14.26C48.1252 14.5667 48.6652 14.72 49.2919 14.72ZM60.3353 16.24C59.3886 16.24 58.5886 16.06 57.9353 15.7C57.282 15.34 56.7886 14.8533 56.4553 14.24C56.122 13.6133 55.9553 12.9067 55.9553 12.12C55.9553 11.56 56.0553 11 56.2553 10.44H58.0153C57.842 10.96 57.7553 11.4533 57.7553 11.92C57.7553 12.4533 57.8486 12.9333 58.0353 13.36C58.222 13.7867 58.5086 14.1267 58.8953 14.38C59.2953 14.62 59.7753 14.74 60.3353 14.74C60.8953 14.74 61.3686 14.62 61.7553 14.38C62.142 14.1267 62.4286 13.8 62.6153 13.4C62.8153 12.9867 62.9153 12.54 62.9153 12.06C62.9153 11.58 62.8286 11.1533 62.6553 10.78C62.482 10.4067 62.262 10.0867 61.9953 9.82C61.742 9.55333 61.402 9.24 60.9753 8.88C60.5353 8.50667 60.1953 8.19333 59.9553 7.94C59.7153 7.67333 59.5086 7.36 59.3353 7C59.162 6.64 59.0753 6.22667 59.0753 5.76H60.9153C60.9553 6.06667 61.0486 6.35333 61.1953 6.62C61.3553 6.87333 61.5353 7.10667 61.7353 7.32C61.9486 7.52 62.222 7.76 62.5553 8.04C63.022 8.45333 63.3953 8.82 63.6753 9.14C63.9686 9.46 64.2153 9.86 64.4153 10.34C64.6153 10.82 64.7153 11.3867 64.7153 12.04C64.7153 12.7733 64.542 13.46 64.1953 14.1C63.8486 14.74 63.342 15.26 62.6753 15.66C62.022 16.0467 61.242 16.24 60.3353 16.24ZM76.2069 16C76.7135 15.2267 77.0869 14.42 77.3269 13.58C77.5802 12.74 77.7069 11.8467 77.7069 10.9C77.7069 9.67333 77.5135 8.76 77.1269 8.16C76.7535 7.56 76.2202 7.26 75.5269 7.26C74.9935 7.26 74.5735 7.48 74.2669 7.92C73.9735 8.34667 73.8269 8.92 73.8269 9.64V13.26H72.0469V9.64C72.0469 8.89333 71.9002 8.31333 71.6069 7.9C71.3135 7.47333 70.9069 7.26 70.3869 7.26C69.7202 7.26 69.1935 7.56 68.8069 8.16C68.4202 8.74667 68.2269 9.65333 68.2269 10.88C68.2269 11.7867 68.3535 12.68 68.6069 13.56C68.8602 14.4267 69.2269 15.24 69.7069 16H67.8469C67.3669 15.24 67.0135 14.3867 66.7869 13.44C66.5602 12.48 66.4469 11.2467 66.4469 9.74C66.4469 7.52667 66.9002 5.79333 67.8069 4.54C68.7269 3.27333 70.1269 2.44667 72.0069 2.06L73.8469 1.68C74.1402 1.61333 74.3869 1.52667 74.5869 1.42C74.7869 1.3 74.9202 1.16 74.9869 0.999999H76.8069C76.7402 1.42667 76.6002 1.78 76.3869 2.06C76.1735 2.34 75.8602 2.57333 75.4469 2.76C75.0335 2.93333 74.4935 3.08667 73.8269 3.22L72.2069 3.54C71.1002 3.75333 70.1802 4.16667 69.4469 4.78C68.7269 5.39333 68.2269 6.28 67.9469 7.44H68.0069C68.2335 6.89333 68.5535 6.48 68.9669 6.2C69.3802 5.90667 69.8535 5.76 70.3869 5.76C70.8402 5.76 71.2202 5.83333 71.5269 5.98C71.8335 6.11333 72.0935 6.33333 72.3069 6.64C72.5202 6.93333 72.7069 7.32667 72.8669 7.82H72.9469C73.1869 7.12667 73.5535 6.61333 74.0469 6.28C74.5535 5.93333 75.1402 5.76 75.8069 5.76C76.5802 5.76 77.2402 5.97333 77.7869 6.4C78.3469 6.82667 78.7669 7.42 79.0469 8.18C79.3402 8.94 79.4869 9.82 79.4869 10.82C79.4869 11.8467 79.3735 12.78 79.1469 13.62C78.9202 14.46 78.5669 15.2533 78.0869 16H76.2069ZM93.132 16C93.6387 15.2267 94.012 14.42 94.252 13.58C94.5054 12.74 94.632 11.84 94.632 10.88C94.632 9.69333 94.4454 8.78667 94.072 8.16C93.712 7.53333 93.1787 7.22 92.472 7.22C91.8587 7.22 91.3787 7.44 91.032 7.88C90.6854 8.30667 90.512 8.90667 90.512 9.68V10.98C90.512 12.0067 90.332 12.92 89.972 13.72C89.612 14.5067 89.0787 15.1267 88.372 15.58C87.6787 16.02 86.832 16.24 85.832 16.24C84.8454 16.24 83.9987 16.02 83.292 15.58C82.5987 15.14 82.072 14.5267 81.712 13.74C81.352 12.94 81.172 12.02 81.172 10.98C81.172 9.98 81.352 9.08667 81.712 8.3C82.0854 7.51333 82.612 6.89333 83.292 6.44C83.9854 5.98667 84.7854 5.76 85.692 5.76C86.532 5.76 87.252 5.91333 87.852 6.22C88.4654 6.51333 88.992 7.04 89.432 7.8H89.492C89.8254 7.05333 90.252 6.52667 90.772 6.22C91.292 5.91333 91.912 5.76 92.632 5.76C93.392 5.76 94.0587 5.96667 94.632 6.38C95.2054 6.78 95.6454 7.36667 95.952 8.14C96.272 8.91333 96.432 9.82667 96.432 10.88C96.432 11.88 96.3187 12.8 96.092 13.64C95.8654 14.4667 95.5054 15.2533 95.012 16H93.132ZM85.852 14.74C86.492 14.74 87.0254 14.5733 87.452 14.24C87.8787 13.9067 88.192 13.46 88.392 12.9C88.6054 12.3267 88.712 11.6867 88.712 10.98C88.712 9.84667 88.4654 8.94667 87.972 8.28C87.492 7.6 86.7787 7.26 85.832 7.26C85.192 7.26 84.6587 7.42 84.232 7.74C83.8054 8.06 83.4854 8.5 83.272 9.06C83.072 9.62 82.972 10.26 82.972 10.98C82.972 11.6867 83.072 12.3267 83.272 12.9C83.4854 13.46 83.8054 13.9067 84.232 14.24C84.672 14.5733 85.212 14.74 85.852 14.74ZM104.086 16C104.512 15.1733 104.832 14.3733 105.046 13.6C105.259 12.8267 105.366 11.9467 105.366 10.96C105.366 9.88 105.139 8.99333 104.686 8.3C104.246 7.60667 103.566 7.26 102.646 7.26C101.726 7.26 101.039 7.60667 100.586 8.3C100.132 8.99333 99.9056 9.88 99.9056 10.96C99.9056 11.9333 100.012 12.8067 100.226 13.58C100.439 14.3533 100.759 15.16 101.186 16H99.4056C98.979 15.24 98.6523 14.4667 98.4256 13.68C98.2123 12.88 98.1056 11.9733 98.1056 10.96C98.1056 9.88 98.2923 8.95333 98.6656 8.18C99.039 7.39333 99.5656 6.79333 100.246 6.38C100.939 5.96667 101.739 5.76 102.646 5.76C103.552 5.76 104.346 5.96667 105.026 6.38C105.719 6.79333 106.252 7.39333 106.626 8.18C106.999 8.95333 107.186 9.88 107.186 10.96C107.186 11.9733 107.072 12.8733 106.846 13.66C106.619 14.4467 106.292 15.2267 105.866 16H104.086ZM111.907 7.88H109.687V5.66H111.907V7.88ZM111.907 16H109.687V13.78H111.907V16Z" fill="#7E8898"/>
<path d="M124.46 16.24C123.527 16.24 122.7 16.0533 121.98 15.68C121.273 15.3067 120.727 14.8133 120.34 14.2C119.967 13.5867 119.78 12.9267 119.78 12.22C119.78 11.6867 119.88 11.1333 120.08 10.56H121.8C121.653 11.04 121.58 11.52 121.58 12C121.58 12.5067 121.693 12.9733 121.92 13.4C122.147 13.8133 122.473 14.14 122.9 14.38C123.34 14.62 123.86 14.74 124.46 14.74C125.02 14.74 125.507 14.6133 125.92 14.36C126.333 14.1067 126.647 13.7533 126.86 13.3C127.087 12.8467 127.2 12.34 127.2 11.78C127.2 11.18 127.093 10.6533 126.88 10.2C126.667 9.74667 126.36 9.4 125.96 9.16C125.56 8.90667 125.087 8.78 124.54 8.78H123.68V7.3H124.68C125.293 7.3 125.747 7.17333 126.04 6.92C126.347 6.65333 126.5 6.27333 126.5 5.78C126.5 5.43333 126.42 5.14 126.26 4.9C126.1 4.66 125.893 4.47333 125.64 4.34C125.4 4.19333 125.08 4.03333 124.68 3.86C124 3.59333 123.447 3.24667 123.02 2.82C122.593 2.39333 122.38 1.78667 122.38 0.999999H124.18C124.193 1.30667 124.273 1.57333 124.42 1.8C124.58 2.01333 124.78 2.2 125.02 2.36C125.26 2.50667 125.56 2.66667 125.92 2.84C126.44 3.08 126.86 3.30667 127.18 3.52C127.5 3.72 127.773 3.99333 128 4.34C128.24 4.67333 128.36 5.08667 128.36 5.58C128.36 6.19333 128.227 6.7 127.96 7.1C127.707 7.5 127.28 7.8 126.68 8V8.06C127.333 8.3 127.88 8.74 128.32 9.38C128.773 10.0067 129 10.82 129 11.82C129 12.62 128.813 13.36 128.44 14.04C128.08 14.7067 127.553 15.24 126.86 15.64C126.18 16.04 125.38 16.24 124.46 16.24ZM135.064 20.24C134.104 20.24 133.284 20.06 132.604 19.7C131.937 19.34 131.424 18.8333 131.064 18.18C130.717 17.54 130.544 16.8 130.544 15.96C130.544 15.6133 130.577 15.28 130.644 14.96C130.724 14.64 130.83 14.3067 130.964 13.96H132.704C132.597 14.24 132.51 14.5467 132.444 14.88C132.377 15.2133 132.344 15.5133 132.344 15.78C132.344 16.6867 132.57 17.4067 133.024 17.94C133.49 18.4733 134.17 18.74 135.064 18.74C135.997 18.74 136.684 18.4467 137.124 17.86C137.564 17.2867 137.784 16.4067 137.784 15.22V10.64C137.784 9.61333 137.584 8.79333 137.184 8.18C136.784 7.56667 136.15 7.26 135.284 7.26C134.764 7.26 134.31 7.36 133.924 7.56C133.55 7.76 133.264 8.04 133.064 8.4C132.877 8.74667 132.784 9.14 132.784 9.58C132.784 9.99333 132.81 10.3333 132.864 10.6H131.104C131.077 10.4933 131.05 10.34 131.024 10.14C130.997 9.94 130.984 9.73333 130.984 9.52C130.984 8.88 131.157 8.27333 131.504 7.7C131.864 7.11333 132.37 6.64667 133.024 6.3C133.677 5.94 134.43 5.76 135.284 5.76C136.217 5.76 137.004 5.98 137.644 6.42C138.284 6.84667 138.757 7.42667 139.064 8.16C139.37 8.89333 139.524 9.7 139.524 10.58V15.38C139.524 16.9667 139.137 18.1733 138.364 19C137.59 19.8267 136.49 20.24 135.064 20.24ZM147.265 20.24C146.105 20.24 145.085 19.9467 144.205 19.36C143.338 18.7733 142.665 17.9333 142.185 16.84C141.705 15.76 141.465 14.5 141.465 13.06C141.465 11.74 141.665 10.56 142.065 9.52C142.478 8.48 143.058 7.64 143.805 7C144.552 6.36 145.418 5.97333 146.405 5.84H146.545C146.492 5.54667 146.458 5.22 146.445 4.86C146.432 4.5 146.425 4.14667 146.425 3.8H148.085C148.085 4.14667 148.078 4.5 148.065 4.86C148.052 5.22 148.025 5.54667 147.985 5.84H148.105C149.105 5.97333 149.978 6.36 150.725 7C151.472 7.62667 152.045 8.46 152.445 9.5C152.845 10.54 153.045 11.7267 153.045 13.06C153.045 14.5 152.805 15.76 152.325 16.84C151.845 17.9333 151.165 18.7733 150.285 19.36C149.418 19.9467 148.412 20.24 147.265 20.24ZM147.265 18.72C148.132 18.72 148.865 18.48 149.465 18C150.065 17.5333 150.512 16.8733 150.805 16.02C151.098 15.1667 151.245 14.18 151.245 13.06C151.245 12.06 151.125 11.1467 150.885 10.32C150.645 9.49333 150.285 8.81333 149.805 8.28C149.338 7.73333 148.772 7.38667 148.105 7.24L147.905 7.14C147.972 7.55333 148.025 8 148.065 8.48C148.105 8.94667 148.125 9.36 148.125 9.72V13.26H146.405V9.72C146.405 9.32 146.425 8.88667 146.465 8.42C146.505 7.94 146.558 7.51333 146.625 7.14L146.405 7.22C145.725 7.36667 145.152 7.71333 144.685 8.26C144.218 8.80667 143.865 9.49333 143.625 10.32C143.385 11.1467 143.265 12.06 143.265 13.06C143.265 14.18 143.412 15.16 143.705 16C144.012 16.8533 144.465 17.52 145.065 18C145.665 18.48 146.398 18.72 147.265 18.72ZM164.547 16C165.053 15.2267 165.427 14.42 165.667 13.58C165.92 12.74 166.047 11.8467 166.047 10.9C166.047 9.67333 165.853 8.76 165.467 8.16C165.093 7.56 164.56 7.26 163.867 7.26C163.333 7.26 162.913 7.48 162.607 7.92C162.313 8.34667 162.167 8.92 162.167 9.64V13.26H160.387V9.64C160.387 8.89333 160.24 8.31333 159.947 7.9C159.653 7.47333 159.247 7.26 158.727 7.26C158.06 7.26 157.533 7.56 157.147 8.16C156.76 8.74667 156.567 9.65333 156.567 10.88C156.567 11.7867 156.693 12.68 156.947 13.56C157.2 14.4267 157.567 15.24 158.047 16H156.187C155.707 15.24 155.353 14.3867 155.127 13.44C154.9 12.48 154.787 11.2467 154.787 9.74C154.787 7.52667 155.24 5.79333 156.147 4.54C157.067 3.27333 158.467 2.44667 160.347 2.06L162.187 1.68C162.48 1.61333 162.727 1.52667 162.927 1.42C163.127 1.3 163.26 1.16 163.327 0.999999H165.147C165.08 1.42667 164.94 1.78 164.727 2.06C164.513 2.34 164.2 2.57333 163.787 2.76C163.373 2.93333 162.833 3.08667 162.167 3.22L160.547 3.54C159.44 3.75333 158.52 4.16667 157.787 4.78C157.067 5.39333 156.567 6.28 156.287 7.44H156.347C156.573 6.89333 156.893 6.48 157.307 6.2C157.72 5.90667 158.193 5.76 158.727 5.76C159.18 5.76 159.56 5.83333 159.867 5.98C160.173 6.11333 160.433 6.33333 160.647 6.64C160.86 6.93333 161.047 7.32667 161.207 7.82H161.287C161.527 7.12667 161.893 6.61333 162.387 6.28C162.893 5.93333 163.48 5.76 164.147 5.76C164.92 5.76 165.58 5.97333 166.127 6.4C166.687 6.82667 167.107 7.42 167.387 8.18C167.68 8.94 167.827 9.82 167.827 10.82C167.827 11.8467 167.713 12.78 167.487 13.62C167.26 14.46 166.907 15.2533 166.427 16H164.547ZM175.492 16C175.919 15.1733 176.239 14.3733 176.452 13.6C176.665 12.8267 176.772 11.9467 176.772 10.96C176.772 9.88 176.545 8.99333 176.092 8.3C175.652 7.60667 174.972 7.26 174.052 7.26C173.132 7.26 172.445 7.60667 171.992 8.3C171.539 8.99333 171.312 9.88 171.312 10.96C171.312 11.9333 171.419 12.8067 171.632 13.58C171.845 14.3533 172.165 15.16 172.592 16H170.812C170.385 15.24 170.059 14.4667 169.832 13.68C169.619 12.88 169.512 11.9733 169.512 10.96C169.512 9.88 169.699 8.95333 170.072 8.18C170.445 7.39333 170.972 6.79333 171.652 6.38C172.345 5.96667 173.145 5.76 174.052 5.76C174.959 5.76 175.752 5.96667 176.432 6.38C177.125 6.79333 177.659 7.39333 178.032 8.18C178.405 8.95333 178.592 9.88 178.592 10.96C178.592 11.9733 178.479 12.8733 178.252 13.66C178.025 14.4467 177.699 15.2267 177.272 16H175.492ZM184.574 16.24C183.627 16.24 182.827 16.06 182.174 15.7C181.52 15.34 181.027 14.8533 180.694 14.24C180.36 13.6133 180.194 12.9067 180.194 12.12C180.194 11.56 180.294 11 180.494 10.44H182.254C182.08 10.96 181.994 11.4533 181.994 11.92C181.994 12.4533 182.087 12.9333 182.274 13.36C182.46 13.7867 182.747 14.1267 183.134 14.38C183.534 14.62 184.014 14.74 184.574 14.74C185.134 14.74 185.607 14.62 185.994 14.38C186.38 14.1267 186.667 13.8 186.854 13.4C187.054 12.9867 187.154 12.54 187.154 12.06C187.154 11.58 187.067 11.1533 186.894 10.78C186.72 10.4067 186.5 10.0867 186.234 9.82C185.98 9.55333 185.64 9.24 185.214 8.88C184.774 8.50667 184.434 8.19333 184.194 7.94C183.954 7.67333 183.747 7.36 183.574 7C183.4 6.64 183.314 6.22667 183.314 5.76H185.154C185.194 6.06667 185.287 6.35333 185.434 6.62C185.594 6.87333 185.774 7.10667 185.974 7.32C186.187 7.52 186.46 7.76 186.794 8.04C187.26 8.45333 187.634 8.82 187.914 9.14C188.207 9.46 188.454 9.86 188.654 10.34C188.854 10.82 188.954 11.3867 188.954 12.04C188.954 12.7733 188.78 13.46 188.434 14.1C188.087 14.74 187.58 15.26 186.914 15.66C186.26 16.0467 185.48 16.24 184.574 16.24ZM191.805 0.76C192.485 0.76 193.025 0.906666 193.425 1.2C193.838 1.48 194.132 1.88 194.305 2.4H194.385C194.612 1.85333 194.958 1.44667 195.425 1.18C195.892 0.899999 196.452 0.76 197.105 0.76C197.705 0.76 198.238 0.899999 198.705 1.18C199.185 1.46 199.558 1.88667 199.825 2.46C200.105 3.02 200.245 3.71333 200.245 4.54V10.98C200.245 12.06 200.052 12.9933 199.665 13.78C199.278 14.5667 198.718 15.1733 197.985 15.6C197.265 16.0267 196.412 16.24 195.425 16.24C194.425 16.24 193.565 16.0267 192.845 15.6C192.125 15.1733 191.572 14.5667 191.185 13.78C190.812 12.9933 190.625 12.06 190.625 10.98C190.625 9.95333 190.818 9.06 191.205 8.3C191.605 7.52667 192.145 6.94 192.825 6.54C193.518 6.12667 194.285 5.92 195.125 5.92C195.858 5.92 196.478 6.04667 196.985 6.3C197.505 6.54 197.978 6.91333 198.405 7.42H198.445V4.42C198.445 3.71333 198.298 3.16667 198.005 2.78C197.725 2.39333 197.325 2.2 196.805 2.2C196.298 2.2 195.898 2.34667 195.605 2.64C195.325 2.93333 195.185 3.3 195.185 3.74V4.42H193.405V3.7C193.405 3.23333 193.252 2.88 192.945 2.64C192.652 2.38667 192.238 2.26 191.705 2.26C191.545 2.26 191.358 2.27333 191.145 2.3C190.932 2.32667 190.765 2.36 190.645 2.4V0.92C190.765 0.88 190.945 0.846666 191.185 0.819999C191.425 0.779999 191.632 0.76 191.805 0.76ZM195.425 14.74C196.065 14.74 196.612 14.5867 197.065 14.28C197.532 13.9733 197.885 13.5467 198.125 13C198.378 12.44 198.505 11.8 198.505 11.08C198.505 9.90667 198.232 9.00667 197.685 8.38C197.138 7.74 196.378 7.42 195.405 7.42C194.765 7.42 194.225 7.58 193.785 7.9C193.345 8.20667 193.012 8.64 192.785 9.2C192.558 9.74667 192.445 10.3733 192.445 11.08C192.445 11.8 192.558 12.44 192.785 13C193.025 13.5467 193.365 13.9733 193.805 14.28C194.258 14.5867 194.798 14.74 195.425 14.74ZM206.807 20.24C205.86 20.24 205.027 20.0533 204.307 19.68C203.6 19.32 203.053 18.8267 202.667 18.2C202.28 17.5733 202.087 16.8867 202.087 16.14C202.087 15.8067 202.12 15.4867 202.187 15.18C202.253 14.8733 202.353 14.5467 202.487 14.2H204.227C204.12 14.48 204.033 14.7733 203.967 15.08C203.913 15.3867 203.887 15.6733 203.887 15.94C203.887 16.4733 204 16.9533 204.227 17.38C204.467 17.8067 204.807 18.14 205.247 18.38C205.687 18.62 206.207 18.74 206.807 18.74C207.367 18.74 207.853 18.62 208.267 18.38C208.693 18.14 209.013 17.8067 209.227 17.38C209.453 16.9667 209.567 16.4933 209.567 15.96C209.567 15.36 209.46 14.8467 209.247 14.42C209.047 13.9933 208.753 13.6733 208.367 13.46C207.993 13.2333 207.553 13.12 207.047 13.12H206.087V11.64H207.047C207.727 11.64 208.24 11.4467 208.587 11.06C208.933 10.66 209.107 10.1533 209.107 9.54C209.107 9.14 209.027 8.76667 208.867 8.42C208.707 8.07333 208.453 7.79333 208.107 7.58C207.76 7.36667 207.327 7.26 206.807 7.26C205.967 7.26 205.34 7.48667 204.927 7.94C204.527 8.38 204.327 8.95333 204.327 9.66C204.327 9.96667 204.353 10.2067 204.407 10.38H202.627C202.56 10.1533 202.527 9.88667 202.527 9.58C202.527 8.88667 202.693 8.25333 203.027 7.68C203.373 7.09333 203.867 6.62667 204.507 6.28C205.16 5.93333 205.927 5.76 206.807 5.76C207.673 5.76 208.413 5.93333 209.027 6.28C209.653 6.61333 210.127 7.05333 210.447 7.6C210.767 8.14667 210.927 8.72667 210.927 9.34C210.927 10.1133 210.76 10.76 210.427 11.28C210.093 11.7867 209.633 12.14 209.047 12.34V12.42C209.727 12.6467 210.28 13.0533 210.707 13.64C211.147 14.2133 211.367 15 211.367 16C211.367 16.7467 211.18 17.44 210.807 18.08C210.447 18.7333 209.92 19.2533 209.227 19.64C208.533 20.04 207.727 20.24 206.807 20.24ZM218.89 16C219.317 15.1733 219.637 14.3733 219.85 13.6C220.064 12.8267 220.17 11.9467 220.17 10.96C220.17 9.88 219.944 8.99333 219.49 8.3C219.05 7.60667 218.37 7.26 217.45 7.26C216.53 7.26 215.844 7.60667 215.39 8.3C214.937 8.99333 214.71 9.88 214.71 10.96C214.71 11.9333 214.817 12.8067 215.03 13.58C215.244 14.3533 215.564 15.16 215.99 16H214.21C213.784 15.24 213.457 14.4667 213.23 13.68C213.017 12.88 212.91 11.9733 212.91 10.96C212.91 9.88 213.097 8.95333 213.47 8.18C213.844 7.39333 214.37 6.79333 215.05 6.38C215.744 5.96667 216.544 5.76 217.45 5.76C218.357 5.76 219.15 5.96667 219.83 6.38C220.524 6.79333 221.057 7.39333 221.43 8.18C221.804 8.95333 221.99 9.88 221.99 10.96C221.99 11.9733 221.877 12.8733 221.65 13.66C221.424 14.4467 221.097 15.2267 220.67 16H218.89ZM234.832 20C234.685 19.28 234.192 18.74 233.352 18.38C232.512 18.02 231.452 17.84 230.172 17.84H225.472V16.52H227.352V16.44C226.632 16.24 225.992 15.8733 225.432 15.34C224.885 14.7933 224.459 14.14 224.152 13.38C223.859 12.6067 223.712 11.7733 223.712 10.88C223.712 9.25333 224.012 7.99333 224.612 7.1C225.225 6.20667 226.112 5.76 227.272 5.76C227.912 5.76 228.459 5.93333 228.912 6.28C229.365 6.61333 229.699 7.12667 229.912 7.82H229.992C230.165 7.12667 230.479 6.61333 230.932 6.28C231.399 5.93333 231.945 5.76 232.572 5.76C233.252 5.76 233.792 5.92667 234.192 6.26C234.605 6.58 234.905 7.1 235.092 7.82H235.172C235.385 7.14 235.739 6.62667 236.232 6.28C236.725 5.93333 237.279 5.76 237.892 5.76C238.665 5.76 239.312 5.97333 239.832 6.4C240.352 6.81333 240.739 7.4 240.992 8.16C241.259 8.92 241.392 9.80667 241.392 10.82C241.392 11.6467 241.312 12.4133 241.152 13.12C241.005 13.8267 240.772 14.5 240.452 15.14H238.592C239.259 13.8867 239.592 12.4733 239.592 10.9C239.592 9.67333 239.432 8.76 239.112 8.16C238.805 7.56 238.332 7.26 237.692 7.26C237.172 7.26 236.765 7.48 236.472 7.92C236.192 8.34667 236.052 8.92 236.052 9.64V13.26H234.252V9.64C234.252 8.86667 234.119 8.28 233.852 7.88C233.585 7.46667 233.159 7.26 232.572 7.26C231.985 7.26 231.552 7.47333 231.272 7.9C231.005 8.31333 230.872 8.89333 230.872 9.64V13.26H229.072V9.64C229.072 8.89333 228.925 8.31333 228.632 7.9C228.352 7.47333 227.945 7.26 227.412 7.26C226.745 7.26 226.259 7.56 225.952 8.16C225.659 8.76 225.512 9.66667 225.512 10.88C225.512 11.9333 225.719 12.8467 226.132 13.62C226.559 14.38 227.099 14.98 227.752 15.42C228.419 15.86 229.125 16.1467 229.872 16.28C230.165 16.3333 230.585 16.3933 231.132 16.46C231.239 16.4733 231.499 16.5067 231.912 16.56C232.339 16.6267 232.719 16.6933 233.052 16.76C233.385 16.84 233.665 16.92 233.892 17C235.625 17.5867 236.545 18.5867 236.652 20H234.832ZM249.086 16C249.512 15.1733 249.832 14.3733 250.046 13.6C250.259 12.8267 250.366 11.9467 250.366 10.96C250.366 9.88 250.139 8.99333 249.686 8.3C249.246 7.60667 248.566 7.26 247.646 7.26C246.726 7.26 246.039 7.60667 245.586 8.3C245.132 8.99333 244.906 9.88 244.906 10.96C244.906 11.9333 245.012 12.8067 245.226 13.58C245.439 14.3533 245.759 15.16 246.186 16H244.406C243.979 15.24 243.652 14.4667 243.426 13.68C243.212 12.88 243.106 11.9733 243.106 10.96C243.106 9.88 243.292 8.95333 243.666 8.18C244.039 7.39333 244.566 6.79333 245.246 6.38C245.939 5.96667 246.739 5.76 247.646 5.76C248.552 5.76 249.346 5.96667 250.026 6.38C250.719 6.79333 251.252 7.39333 251.626 8.18C251.999 8.95333 252.186 9.88 252.186 10.96C252.186 11.9733 252.072 12.8733 251.846 13.66C251.619 14.4467 251.292 15.2267 250.866 16H249.086ZM263.694 20.24C262.734 20.24 261.914 20.06 261.234 19.7C260.567 19.34 260.054 18.8333 259.694 18.18C259.347 17.54 259.174 16.8 259.174 15.96C259.174 15.2667 259.314 14.6 259.594 13.96H261.334C261.227 14.24 261.14 14.5467 261.074 14.88C261.007 15.2 260.974 15.4867 260.974 15.74C260.974 16.66 261.2 17.3867 261.654 17.92C262.12 18.4667 262.8 18.74 263.694 18.74C264.6 18.74 265.28 18.4333 265.734 17.82C266.187 17.22 266.414 16.3867 266.414 15.32V10.58C266.414 9.95333 266.307 9.39333 266.094 8.9C265.88 8.40667 265.574 8.02 265.174 7.74C264.774 7.46 264.3 7.32 263.754 7.32C262.967 7.32 262.38 7.53333 261.994 7.96C261.607 8.38667 261.414 8.94 261.414 9.62C261.414 9.98 261.447 10.3067 261.514 10.6H259.734C259.654 10.2267 259.614 9.86667 259.614 9.52C259.614 8.86667 259.754 8.25333 260.034 7.68C260.327 7.10667 260.767 6.64667 261.354 6.3C261.954 5.94 262.687 5.76 263.554 5.76C264.194 5.76 264.747 5.89333 265.214 6.16C265.694 6.42667 266.08 6.79333 266.374 7.26H266.414V0.999999H268.154V15.14C268.154 16.8067 267.767 18.0733 266.994 18.94C266.22 19.8067 265.12 20.24 263.694 20.24ZM273.177 16H270.957V13.78H273.177V16ZM285.71 1.82C286.603 1.82 287.37 1.97333 288.01 2.28C288.663 2.58667 289.156 3.02667 289.49 3.6C289.836 4.16 290.01 4.82667 290.01 5.6C290.01 6.18667 289.836 6.73333 289.49 7.24C289.156 7.73333 288.676 8.13333 288.05 8.44V8.48C288.876 8.66667 289.51 9.06 289.95 9.66C290.39 10.26 290.61 11.0133 290.61 11.92C290.61 12.7867 290.403 13.5467 289.99 14.2C289.576 14.8533 289.003 15.36 288.27 15.72C287.536 16.0667 286.696 16.24 285.75 16.24C284.803 16.24 283.97 16.0667 283.25 15.72C282.543 15.36 281.99 14.84 281.59 14.16C281.203 13.4667 281.01 12.64 281.01 11.68V11.62H282.73C282.77 12.62 283.056 13.3933 283.59 13.94C284.123 14.4733 284.843 14.74 285.75 14.74C286.323 14.74 286.843 14.6267 287.31 14.4C287.776 14.16 288.143 13.8333 288.41 13.42C288.676 12.9933 288.81 12.52 288.81 12C288.81 11.44 288.683 10.96 288.43 10.56C288.176 10.1467 287.816 9.83333 287.35 9.62C286.896 9.39333 286.356 9.28 285.73 9.28C285.423 9.28 285.103 9.3 284.77 9.34V7.9C284.876 7.91333 285.09 7.92 285.41 7.92C285.956 7.92 286.443 7.82 286.87 7.62C287.31 7.42 287.643 7.14667 287.87 6.8C288.11 6.45333 288.23 6.05333 288.23 5.6C288.23 5.13333 288.123 4.73333 287.91 4.4C287.696 4.05333 287.396 3.78667 287.01 3.6C286.636 3.41333 286.203 3.32 285.71 3.32C284.883 3.32 284.23 3.59333 283.75 4.14C283.27 4.67333 283.023 5.42667 283.01 6.4H281.31C281.376 4.93333 281.79 3.80667 282.55 3.02C283.323 2.22 284.376 1.82 285.71 1.82ZM297.103 1.82C298.663 1.82 299.843 2.34 300.643 3.38C301.43 4.40667 301.823 6.29333 301.823 9.04C301.823 10.4133 301.723 11.5667 301.523 12.5C301.336 13.4333 301.043 14.16 300.643 14.68C299.843 15.72 298.663 16.24 297.103 16.24C295.516 16.24 294.336 15.7133 293.563 14.66C292.776 13.6067 292.383 11.7333 292.383 9.04C292.383 6.33333 292.776 4.45333 293.563 3.4C293.963 2.86667 294.456 2.47333 295.043 2.22C295.63 1.95333 296.316 1.82 297.103 1.82ZM294.183 9.02C294.183 11.22 294.43 12.7333 294.923 13.56C295.43 14.3467 296.156 14.74 297.103 14.74C298.156 14.74 298.91 14.2867 299.363 13.38C299.59 12.9267 299.756 12.3333 299.863 11.6C299.97 10.8533 300.023 9.95333 300.023 8.9C300.023 7.94 299.97 7.08 299.863 6.32C299.77 5.56 299.543 4.92 299.183 4.4C298.69 3.68 297.99 3.32 297.083 3.32C296.176 3.32 295.463 3.70667 294.943 4.48C294.436 5.25333 294.183 6.76667 294.183 9.02Z" fill="#3F4145"/>
</svg>
