<svg width="460" height="34" viewBox="0 0 460 34" fill="none" xmlns="http://www.w3.org/2000/svg">
<path d="M17.036 18.728C17.036 21.128 16.328 23.048 14.912 24.488C13.52 25.904 11.456 26.612 8.72 26.612C5.936 26.612 3.932 25.892 2.708 24.452C1.484 22.988 0.872 20.984 0.872 18.44V1.556H5.48V18.044C5.48 21.188 6.608 22.76 8.864 22.76C9.944 22.76 10.808 22.448 11.456 21.824C12.128 21.176 12.464 20.264 12.464 19.088C12.464 18.224 12.296 17.492 11.96 16.892C11.624 16.292 11.252 15.728 10.844 15.2C10.556 14.816 10.256 14.408 9.944 13.976C9.656 13.544 9.392 13.04 9.152 12.464C8.912 11.888 8.72 11.228 8.576 10.484C8.432 9.716 8.36 8.816 8.36 7.784H12.896C12.896 8.528 12.944 9.176 13.04 9.728C13.16 10.256 13.304 10.736 13.472 11.168C13.664 11.6 13.868 11.984 14.084 12.32C14.324 12.632 14.564 12.944 14.804 13.256C15.092 13.64 15.368 14.024 15.632 14.408C15.896 14.768 16.124 15.164 16.316 15.596C16.532 16.028 16.7 16.496 16.82 17C16.964 17.504 17.036 18.08 17.036 18.728ZM27.6307 7.82C27.6307 9.212 27.7387 10.304 27.9547 11.096C28.1947 11.888 28.6267 12.524 29.2507 13.004C29.9947 13.58 30.6307 14.12 31.1587 14.624C31.6867 15.128 32.1067 15.644 32.4187 16.172C32.7547 16.7 32.9947 17.276 33.1387 17.9C33.3067 18.5 33.3907 19.196 33.3907 19.988C33.3907 20.9 33.2227 21.752 32.8867 22.544C32.5747 23.336 32.1067 24.044 31.4827 24.668C30.8587 25.268 30.1027 25.736 29.2147 26.072C28.3267 26.432 27.3187 26.612 26.1907 26.612C24.0067 26.612 22.2667 26.072 20.9707 24.992C19.6987 23.888 19.0627 22.304 19.0627 20.24C19.0627 19.64 19.1227 19.04 19.2427 18.44C19.3147 18.128 19.3867 17.816 19.4587 17.504H24.1387C24.0427 17.792 23.9587 18.08 23.8867 18.368C23.8387 18.632 23.7907 18.932 23.7427 19.268C23.6947 19.604 23.6707 19.94 23.6707 20.276C23.6707 20.9 23.8867 21.476 24.3187 22.004C24.7507 22.508 25.3747 22.76 26.1907 22.76C26.9827 22.76 27.5947 22.508 28.0267 22.004C28.4587 21.5 28.6747 20.9 28.6747 20.204C28.6747 19.412 28.4947 18.716 28.1347 18.116C27.7747 17.492 27.2467 16.904 26.5507 16.352C25.9507 15.896 25.4227 15.404 24.9667 14.876C24.5347 14.348 24.1627 13.748 23.8507 13.076C23.5627 12.404 23.3467 11.648 23.2027 10.808C23.0587 9.944 22.9867 8.948 22.9867 7.82H27.6307ZM43.0783 7.388C44.7343 7.388 46.1143 7.592 47.2183 8C48.3223 8.384 49.1983 8.9 49.8463 9.548C50.5183 10.172 50.9863 10.892 51.2503 11.708C51.5383 12.524 51.6823 13.364 51.6823 14.228C51.6823 15.596 51.4303 16.736 50.9263 17.648C50.4223 18.536 49.7863 19.22 49.0183 19.7C49.8823 20.228 50.6143 20.984 51.2143 21.968C51.8383 22.928 52.1503 24.02 52.1503 25.244C52.1503 26.348 51.9703 27.368 51.6103 28.304C51.2503 29.264 50.7103 30.092 49.9903 30.788C49.2703 31.508 48.3703 32.072 47.2903 32.48C46.2343 32.888 44.9983 33.092 43.5823 33.092C41.0143 33.092 39.0103 32.336 37.5703 30.824C36.1303 29.336 35.4103 26.972 35.4103 23.732H39.9103C39.9103 25.388 40.2343 26.708 40.8823 27.692C41.5543 28.7 42.4663 29.204 43.6183 29.204C44.6983 29.204 45.6103 28.892 46.3543 28.268C47.1223 27.644 47.5063 26.684 47.5063 25.388C47.5063 24.26 47.1463 23.384 46.4263 22.76C45.7063 22.136 44.8183 21.824 43.7623 21.824C43.4983 21.824 43.2223 21.836 42.9343 21.86C42.6463 21.884 42.3703 21.92 42.1063 21.968C41.8183 22.016 41.5303 22.052 41.2423 22.076V17.756C41.5303 17.804 41.8183 17.84 42.1063 17.864C42.6103 17.936 43.1863 17.972 43.8343 17.972C44.7463 17.972 45.5023 17.72 46.1023 17.216C46.7023 16.688 47.0023 15.884 47.0023 14.804C47.0023 13.628 46.6303 12.74 45.8863 12.14C45.1663 11.54 44.2303 11.24 43.0783 11.24V7.388ZM72.8678 27.368V22.436C73.3958 22.436 73.8878 22.364 74.3438 22.22C74.7998 22.052 75.1838 21.764 75.4958 21.356C75.8318 20.924 76.0838 20.36 76.2518 19.664C76.4438 18.944 76.5398 18.044 76.5398 16.964C76.5398 16.172 76.4798 15.428 76.3598 14.732C76.2638 14.036 76.0958 13.436 75.8558 12.932C75.6398 12.404 75.3638 11.996 75.0278 11.708C74.6918 11.396 74.2958 11.24 73.8398 11.24C73.0718 11.24 72.4598 11.48 72.0038 11.96C71.5718 12.44 71.2358 13.076 70.9958 13.868C70.7558 14.636 70.5998 15.5 70.5278 16.46C70.4798 17.42 70.4558 18.38 70.4558 19.34H65.0558C65.0558 18.476 65.0198 17.576 64.9478 16.64C64.8998 15.68 64.7678 14.804 64.5518 14.012C64.3358 13.22 64.0238 12.572 63.6158 12.068C63.2318 11.54 62.7038 11.264 62.0318 11.24C61.0958 11.192 60.3278 11.612 59.7278 12.5C59.1518 13.364 58.8638 14.816 58.8638 16.856C58.8638 18.056 59.0318 19.028 59.3678 19.772C59.7278 20.516 60.1598 21.092 60.6638 21.5C61.1678 21.908 61.6958 22.184 62.2478 22.328C62.7998 22.448 63.2798 22.508 63.6878 22.508V26.612C62.4638 26.612 61.2758 26.396 60.1238 25.964C58.9718 25.532 57.9518 24.908 57.0638 24.092C56.1998 23.252 55.5038 22.244 54.9758 21.068C54.4478 19.868 54.1838 18.512 54.1838 17C54.1838 15.656 54.3158 14.396 54.5798 13.22C54.8438 12.044 55.2758 11.024 55.8758 10.16C56.4998 9.296 57.3038 8.624 58.2878 8.144C59.2958 7.64 60.5438 7.388 62.0318 7.388C63.7118 7.388 64.9958 7.7 65.8838 8.324C66.7958 8.948 67.4558 9.776 67.8638 10.808C68.3918 9.776 69.1358 8.948 70.0958 8.324C71.0798 7.7 72.3638 7.388 73.9478 7.388C75.4358 7.388 76.6478 7.664 77.5838 8.216C78.5198 8.768 79.2518 9.464 79.7798 10.304C80.3078 11.12 80.6678 11.996 80.8598 12.932C81.0518 13.868 81.1478 14.708 81.1478 15.452C81.1478 16.604 81.0398 17.636 80.8238 18.548C80.6078 19.436 80.3198 20.24 79.9598 20.96C80.3678 20.888 80.7638 20.828 81.1478 20.78C81.5318 20.732 81.8678 20.684 82.1558 20.636C82.4918 20.588 82.8158 20.552 83.1278 20.528V24.812C82.3598 24.764 81.5318 24.764 80.6438 24.812C79.7558 24.86 78.8438 25.004 77.9078 25.244C77.1638 25.436 76.4198 25.688 75.6758 26C74.9318 26.312 74.0078 26.768 72.9038 27.368H72.8678ZM86.0204 4.58C86.0204 2.3 86.9924 1.16 88.9364 1.16C89.5364 1.16 90.0884 1.184 90.5924 1.232C91.0964 1.256 91.5884 1.304 92.0684 1.376C92.5724 1.424 93.0884 1.472 93.6164 1.52C94.1684 1.544 94.7924 1.556 95.4884 1.556C96.2084 1.556 96.9284 1.52 97.6484 1.448C98.3924 1.376 99.0644 1.292 99.6644 1.196C100.36 1.1 101.032 0.979999 101.68 0.835998V5.048C101.152 5.24 100.576 5.396 99.9524 5.516C99.4004 5.636 98.7404 5.744 97.9724 5.84C97.2044 5.912 96.3644 5.948 95.4524 5.948C94.9244 5.948 94.3724 5.936 93.7964 5.912C93.2444 5.864 92.7284 5.816 92.2484 5.768C91.6964 5.72 91.1564 5.66 90.6284 5.588V8.9C91.1804 8.444 91.8044 8.084 92.5004 7.82C93.2204 7.532 94.0124 7.388 94.8764 7.388C96.1724 7.388 97.3364 7.604 98.3684 8.036C99.4004 8.444 100.288 9.056 101.032 9.872C101.776 10.664 102.34 11.648 102.724 12.824C103.132 13.976 103.336 15.284 103.336 16.748C103.336 18.212 103.144 19.556 102.76 20.78C102.4 21.98 101.848 23.012 101.104 23.876C100.36 24.74 99.4364 25.412 98.3324 25.892C97.2524 26.372 95.9804 26.612 94.5164 26.612C92.9324 26.612 91.5884 26.36 90.4844 25.856C89.4044 25.328 88.5284 24.62 87.8564 23.732C87.2084 22.844 86.7404 21.8 86.4524 20.6C86.1644 19.4 86.0204 18.128 86.0204 16.784V4.58ZM90.6644 17.036C90.6644 18.908 91.0004 20.336 91.6724 21.32C92.3444 22.28 93.3044 22.76 94.5524 22.76C95.7524 22.76 96.7364 22.292 97.5044 21.356C98.2964 20.396 98.6924 18.896 98.6924 16.856C98.6924 16.04 98.5844 15.296 98.3684 14.624C98.1764 13.952 97.9004 13.388 97.5404 12.932C97.2044 12.452 96.7844 12.08 96.2804 11.816C95.8004 11.552 95.2724 11.42 94.6964 11.42C94.0244 11.42 93.4364 11.576 92.9324 11.888C92.4284 12.2 92.0084 12.62 91.6724 13.148C91.3364 13.652 91.0844 14.24 90.9164 14.912C90.7484 15.584 90.6644 16.292 90.6644 17.036ZM105.371 20.348C105.371 18.812 105.599 17.36 106.055 15.992C106.511 14.6 107.159 13.352 107.999 12.248C108.839 11.12 109.847 10.172 111.023 9.404C112.223 8.612 113.555 8.048 115.019 7.712C114.755 7.448 114.527 7.136 114.335 6.776C114.143 6.416 114.047 5.96 114.047 5.408C114.047 4.352 114.419 3.56 115.163 3.032C115.931 2.48 116.903 2.204 118.079 2.204C119.303 2.204 120.263 2.516 120.959 3.14C121.679 3.74 122.039 4.52 122.039 5.48C122.039 5.984 121.943 6.416 121.751 6.776C121.559 7.136 121.331 7.448 121.067 7.712C122.531 8.048 123.851 8.612 125.027 9.404C126.227 10.172 127.247 11.12 128.087 12.248C128.927 13.352 129.575 14.6 130.031 15.992C130.487 17.36 130.715 18.812 130.715 20.348C130.715 22.148 130.427 23.828 129.851 25.388C129.275 26.924 128.435 28.256 127.331 29.384C126.251 30.536 124.931 31.436 123.371 32.084C121.811 32.756 120.047 33.092 118.079 33.092C116.111 33.092 114.335 32.768 112.751 32.12C111.191 31.472 109.859 30.572 108.755 29.42C107.675 28.268 106.835 26.924 106.235 25.388C105.659 23.828 105.371 22.148 105.371 20.348ZM126.107 20.348C126.107 18.668 125.723 17.132 124.955 15.74C124.187 14.324 123.179 13.22 121.931 12.428C122.003 12.62 122.039 12.848 122.039 13.112C122.039 14.072 121.679 14.864 120.959 15.488C120.263 16.088 119.303 16.388 118.079 16.388C116.903 16.388 115.931 16.124 115.163 15.596C114.419 15.044 114.047 14.24 114.047 13.184C114.047 12.872 114.083 12.584 114.155 12.32C112.859 13.088 111.839 14.192 111.095 15.632C110.375 17.048 110.015 18.62 110.015 20.348C110.015 21.572 110.231 22.724 110.663 23.804C111.095 24.884 111.671 25.82 112.391 26.612C113.135 27.428 113.987 28.064 114.947 28.52C115.931 28.976 116.975 29.204 118.079 29.204C119.159 29.204 120.179 28.976 121.139 28.52C122.123 28.064 122.975 27.428 123.695 26.612C124.439 25.82 125.027 24.884 125.459 23.804C125.891 22.724 126.107 21.572 126.107 20.348ZM116.819 5.264C116.819 5.6 116.975 5.912 117.287 6.2C117.599 6.488 117.863 6.764 118.079 7.028C118.247 6.74 118.475 6.464 118.763 6.2C119.075 5.912 119.231 5.6 119.231 5.264C119.231 4.952 119.099 4.76 118.835 4.688C118.571 4.616 118.295 4.58 118.007 4.58C117.743 4.58 117.479 4.628 117.215 4.724C116.951 4.82 116.819 5 116.819 5.264ZM116.855 13.328C116.855 13.616 116.987 13.808 117.251 13.904C117.515 13.976 117.779 14.012 118.043 14.012C118.331 14.012 118.595 13.976 118.835 13.904C119.099 13.832 119.231 13.64 119.231 13.328C119.231 12.992 119.075 12.692 118.763 12.428C118.475 12.14 118.247 11.852 118.079 11.564C117.863 11.852 117.599 12.14 117.287 12.428C116.999 12.692 116.855 12.992 116.855 13.328ZM141.326 7.82C141.326 9.212 141.434 10.304 141.65 11.096C141.89 11.888 142.322 12.524 142.946 13.004C143.69 13.58 144.326 14.12 144.854 14.624C145.382 15.128 145.802 15.644 146.114 16.172C146.45 16.7 146.69 17.276 146.834 17.9C147.002 18.5 147.086 19.196 147.086 19.988C147.086 20.9 146.918 21.752 146.582 22.544C146.27 23.336 145.802 24.044 145.178 24.668C144.554 25.268 143.798 25.736 142.91 26.072C142.022 26.432 141.014 26.612 139.886 26.612C137.702 26.612 135.962 26.072 134.666 24.992C133.394 23.888 132.758 22.304 132.758 20.24C132.758 19.64 132.818 19.04 132.938 18.44C133.01 18.128 133.082 17.816 133.154 17.504H137.834C137.738 17.792 137.654 18.08 137.582 18.368C137.534 18.632 137.486 18.932 137.438 19.268C137.39 19.604 137.366 19.94 137.366 20.276C137.366 20.9 137.582 21.476 138.014 22.004C138.446 22.508 139.07 22.76 139.886 22.76C140.678 22.76 141.29 22.508 141.722 22.004C142.154 21.5 142.37 20.9 142.37 20.204C142.37 19.412 142.19 18.716 141.83 18.116C141.47 17.492 140.942 16.904 140.246 16.352C139.646 15.896 139.118 15.404 138.662 14.876C138.23 14.348 137.858 13.748 137.546 13.076C137.258 12.404 137.042 11.648 136.898 10.808C136.754 9.944 136.682 8.948 136.682 7.82H141.326ZM166.026 25.1C166.026 26.18 165.846 27.2 165.486 28.16C165.15 29.144 164.622 29.996 163.902 30.716C163.182 31.46 162.27 32.036 161.166 32.444C160.062 32.876 158.766 33.092 157.278 33.092C154.662 33.092 152.646 32.372 151.23 30.932C149.814 29.492 149.106 27.14 149.106 23.876H153.75C153.75 25.532 154.05 26.828 154.65 27.764C155.25 28.724 156.126 29.204 157.278 29.204C158.502 29.204 159.498 28.832 160.266 28.088C161.058 27.344 161.454 26.264 161.454 24.848V19.232C161.43 18.296 161.346 17.516 161.202 16.892C161.082 16.268 160.89 15.776 160.626 15.416C160.362 15.032 160.026 14.768 159.618 14.624C159.234 14.456 158.754 14.372 158.178 14.372C157.266 14.372 156.558 14.708 156.054 15.38C155.55 16.028 155.298 16.796 155.298 17.684H150.618C150.618 16.724 150.786 15.812 151.122 14.948C151.458 14.084 151.95 13.328 152.598 12.68C153.246 12.008 154.038 11.48 154.974 11.096C155.934 10.688 157.014 10.484 158.214 10.484C159.462 10.484 160.542 10.676 161.454 11.06V1.232H166.026V25.1ZM168.899 20.348C168.899 18.812 169.127 17.36 169.583 15.992C170.039 14.6 170.687 13.352 171.527 12.248C172.367 11.12 173.375 10.172 174.551 9.404C175.751 8.612 177.083 8.048 178.547 7.712C178.283 7.448 178.055 7.136 177.863 6.776C177.671 6.416 177.575 5.96 177.575 5.408C177.575 4.352 177.947 3.56 178.691 3.032C179.459 2.48 180.431 2.204 181.607 2.204C182.831 2.204 183.791 2.516 184.487 3.14C185.207 3.74 185.567 4.52 185.567 5.48C185.567 5.984 185.471 6.416 185.279 6.776C185.087 7.136 184.859 7.448 184.595 7.712C186.059 8.048 187.379 8.612 188.555 9.404C189.755 10.172 190.775 11.12 191.615 12.248C192.455 13.352 193.103 14.6 193.559 15.992C194.015 17.36 194.243 18.812 194.243 20.348C194.243 22.148 193.955 23.828 193.379 25.388C192.803 26.924 191.963 28.256 190.859 29.384C189.779 30.536 188.459 31.436 186.899 32.084C185.339 32.756 183.575 33.092 181.607 33.092C179.639 33.092 177.863 32.768 176.279 32.12C174.719 31.472 173.387 30.572 172.283 29.42C171.203 28.268 170.363 26.924 169.763 25.388C169.187 23.828 168.899 22.148 168.899 20.348ZM189.635 20.348C189.635 18.668 189.251 17.132 188.483 15.74C187.715 14.324 186.707 13.22 185.459 12.428C185.531 12.62 185.567 12.848 185.567 13.112C185.567 14.072 185.207 14.864 184.487 15.488C183.791 16.088 182.831 16.388 181.607 16.388C180.431 16.388 179.459 16.124 178.691 15.596C177.947 15.044 177.575 14.24 177.575 13.184C177.575 12.872 177.611 12.584 177.683 12.32C176.387 13.088 175.367 14.192 174.623 15.632C173.903 17.048 173.543 18.62 173.543 20.348C173.543 21.572 173.759 22.724 174.191 23.804C174.623 24.884 175.199 25.82 175.919 26.612C176.663 27.428 177.515 28.064 178.475 28.52C179.459 28.976 180.503 29.204 181.607 29.204C182.687 29.204 183.707 28.976 184.667 28.52C185.651 28.064 186.503 27.428 187.223 26.612C187.967 25.82 188.555 24.884 188.987 23.804C189.419 22.724 189.635 21.572 189.635 20.348ZM180.347 5.264C180.347 5.6 180.503 5.912 180.815 6.2C181.127 6.488 181.391 6.764 181.607 7.028C181.775 6.74 182.003 6.464 182.291 6.2C182.603 5.912 182.759 5.6 182.759 5.264C182.759 4.952 182.627 4.76 182.363 4.688C182.099 4.616 181.823 4.58 181.535 4.58C181.271 4.58 181.007 4.628 180.743 4.724C180.479 4.82 180.347 5 180.347 5.264ZM180.383 13.328C180.383 13.616 180.515 13.808 180.779 13.904C181.043 13.976 181.307 14.012 181.571 14.012C181.859 14.012 182.123 13.976 182.363 13.904C182.627 13.832 182.759 13.64 182.759 13.328C182.759 12.992 182.603 12.692 182.291 12.428C182.003 12.14 181.775 11.852 181.607 11.564C181.391 11.852 181.127 12.14 180.815 12.428C180.527 12.692 180.383 12.992 180.383 13.328ZM214.969 27.368V22.436C215.497 22.436 215.989 22.364 216.445 22.22C216.901 22.052 217.285 21.764 217.597 21.356C217.933 20.924 218.185 20.36 218.353 19.664C218.545 18.944 218.641 18.044 218.641 16.964C218.641 16.172 218.581 15.428 218.461 14.732C218.365 14.036 218.197 13.436 217.957 12.932C217.741 12.404 217.465 11.996 217.129 11.708C216.793 11.396 216.397 11.24 215.941 11.24C215.173 11.24 214.561 11.48 214.105 11.96C213.673 12.44 213.337 13.076 213.097 13.868C212.857 14.636 212.701 15.5 212.629 16.46C212.581 17.42 212.557 18.38 212.557 19.34H207.157C207.157 18.476 207.121 17.576 207.049 16.64C207.001 15.68 206.869 14.804 206.653 14.012C206.437 13.22 206.125 12.572 205.717 12.068C205.333 11.54 204.805 11.264 204.133 11.24C203.197 11.192 202.429 11.612 201.829 12.5C201.253 13.364 200.965 14.816 200.965 16.856C200.965 18.056 201.133 19.028 201.469 19.772C201.829 20.516 202.261 21.092 202.765 21.5C203.269 21.908 203.797 22.184 204.349 22.328C204.901 22.448 205.381 22.508 205.789 22.508V26.612C204.565 26.612 203.377 26.396 202.225 25.964C201.073 25.532 200.053 24.908 199.165 24.092C198.301 23.252 197.605 22.244 197.077 21.068C196.549 19.868 196.285 18.512 196.285 17C196.285 15.656 196.417 14.396 196.681 13.22C196.945 12.044 197.377 11.024 197.977 10.16C198.601 9.296 199.405 8.624 200.389 8.144C201.397 7.64 202.645 7.388 204.133 7.388C205.813 7.388 207.097 7.7 207.985 8.324C208.897 8.948 209.557 9.776 209.965 10.808C210.493 9.776 211.237 8.948 212.197 8.324C213.181 7.7 214.465 7.388 216.049 7.388C217.537 7.388 218.749 7.664 219.685 8.216C220.621 8.768 221.353 9.464 221.881 10.304C222.409 11.12 222.769 11.996 222.961 12.932C223.153 13.868 223.249 14.708 223.249 15.452C223.249 16.604 223.141 17.636 222.925 18.548C222.709 19.436 222.421 20.24 222.061 20.96C222.469 20.888 222.865 20.828 223.249 20.78C223.633 20.732 223.969 20.684 224.257 20.636C224.593 20.588 224.917 20.552 225.229 20.528V24.812C224.461 24.764 223.633 24.764 222.745 24.812C221.857 24.86 220.945 25.004 220.009 25.244C219.265 25.436 218.521 25.688 217.777 26C217.033 26.312 216.109 26.768 215.005 27.368H214.969ZM245.666 26.648C243.05 26.648 240.998 25.82 239.51 24.164C238.022 22.484 237.278 20.144 237.278 17.144C237.278 15.776 237.506 14.492 237.962 13.292C238.442 12.068 239.114 11 239.978 10.088C240.866 9.176 241.922 8.456 243.146 7.928C244.394 7.376 245.786 7.1 247.322 7.1C248.81 7.1 250.142 7.376 251.318 7.928C252.518 8.456 253.526 9.176 254.342 10.088C255.182 11 255.818 12.056 256.25 13.256C256.706 14.432 256.934 15.668 256.934 16.964C256.934 18.5 256.73 19.868 256.322 21.068C255.914 22.268 255.338 23.288 254.594 24.128C253.85 24.944 252.962 25.568 251.93 26C250.922 26.432 249.806 26.648 248.582 26.648V22.796C248.99 22.796 249.41 22.7 249.842 22.508C250.274 22.316 250.67 21.992 251.03 21.536C251.39 21.056 251.678 20.432 251.894 19.664C252.134 18.896 252.254 17.948 252.254 16.82C252.254 14.852 251.786 13.388 250.85 12.428C249.914 11.468 248.738 10.988 247.322 10.988C246.602 10.988 245.906 11.12 245.234 11.384C244.586 11.624 244.022 11.996 243.542 12.5C243.062 12.98 242.678 13.592 242.39 14.336C242.102 15.056 241.958 15.896 241.958 16.856C241.958 17.984 242.078 18.932 242.318 19.7C242.558 20.468 242.858 21.092 243.218 21.572C243.602 22.028 244.01 22.352 244.442 22.544C244.874 22.736 245.282 22.832 245.666 22.832V26.648ZM259.833 4.58C259.833 2.3 260.805 1.16 262.749 1.16C263.349 1.16 263.901 1.184 264.405 1.232C264.909 1.256 265.401 1.304 265.881 1.376C266.385 1.424 266.901 1.472 267.429 1.52C267.981 1.544 268.605 1.556 269.301 1.556C270.021 1.556 270.741 1.52 271.461 1.448C272.205 1.376 272.877 1.292 273.477 1.196C274.173 1.1 274.845 0.979999 275.493 0.835998V5.048C274.965 5.24 274.389 5.396 273.765 5.516C273.213 5.636 272.553 5.744 271.785 5.84C271.017 5.912 270.177 5.948 269.265 5.948C268.737 5.948 268.185 5.936 267.609 5.912C267.057 5.864 266.541 5.816 266.061 5.768C265.509 5.72 264.969 5.66 264.441 5.588V8.9C264.993 8.444 265.617 8.084 266.313 7.82C267.033 7.532 267.825 7.388 268.689 7.388C269.985 7.388 271.149 7.604 272.181 8.036C273.213 8.444 274.101 9.056 274.845 9.872C275.589 10.664 276.153 11.648 276.537 12.824C276.945 13.976 277.149 15.284 277.149 16.748C277.149 18.212 276.957 19.556 276.573 20.78C276.213 21.98 275.661 23.012 274.917 23.876C274.173 24.74 273.249 25.412 272.145 25.892C271.065 26.372 269.793 26.612 268.329 26.612C266.745 26.612 265.401 26.36 264.297 25.856C263.217 25.328 262.341 24.62 261.669 23.732C261.021 22.844 260.553 21.8 260.265 20.6C259.977 19.4 259.833 18.128 259.833 16.784V4.58ZM264.477 17.036C264.477 18.908 264.813 20.336 265.485 21.32C266.157 22.28 267.117 22.76 268.365 22.76C269.565 22.76 270.549 22.292 271.317 21.356C272.109 20.396 272.505 18.896 272.505 16.856C272.505 16.04 272.397 15.296 272.181 14.624C271.989 13.952 271.713 13.388 271.353 12.932C271.017 12.452 270.597 12.08 270.093 11.816C269.613 11.552 269.085 11.42 268.509 11.42C267.837 11.42 267.249 11.576 266.745 11.888C266.241 12.2 265.821 12.62 265.485 13.148C265.149 13.652 264.897 14.24 264.729 14.912C264.561 15.584 264.477 16.292 264.477 17.036ZM293.62 14.696C293.62 15.776 293.464 16.772 293.152 17.684C292.84 18.596 292.372 19.388 291.748 20.06C291.148 20.708 290.392 21.212 289.48 21.572C288.592 21.932 287.56 22.112 286.384 22.112C285.256 22.112 284.236 21.932 283.324 21.572C282.436 21.188 281.68 20.672 281.056 20.024C280.456 19.376 279.988 18.608 279.652 17.72C279.34 16.832 279.184 15.86 279.184 14.804C279.184 13.748 279.352 12.776 279.688 11.888C280.024 10.976 280.504 10.184 281.128 9.512C281.776 8.84 282.556 8.324 283.468 7.964C284.38 7.58 285.412 7.388 286.564 7.388C288.532 7.388 290.116 7.88 291.316 8.864C291.916 8.408 292.636 8.048 293.476 7.784C294.316 7.52 295.312 7.388 296.464 7.388C297.952 7.388 299.188 7.604 300.172 8.036C301.156 8.444 301.936 8.972 302.512 9.62C303.088 10.268 303.484 10.988 303.7 11.78C303.94 12.572 304.06 13.352 304.06 14.12C304.06 15.2 303.82 16.22 303.34 17.18C302.884 18.116 302.236 18.86 301.396 19.412C302.404 19.892 303.256 20.624 303.952 21.608C304.648 22.592 304.996 23.756 304.996 25.1C304.996 26.18 304.78 27.2 304.348 28.16C303.916 29.144 303.256 29.996 302.368 30.716C301.504 31.46 300.388 32.036 299.02 32.444C297.676 32.876 296.08 33.092 294.232 33.092C292.528 33.092 291.052 32.936 289.804 32.624C288.556 32.336 287.512 31.856 286.672 31.184C285.832 30.512 285.208 29.624 284.8 28.52C284.392 27.416 284.188 26.048 284.188 24.416H288.868C288.868 26.072 289.312 27.284 290.2 28.052C291.088 28.82 292.432 29.204 294.232 29.204C296.08 29.204 297.556 28.844 298.66 28.124C299.764 27.404 300.316 26.396 300.316 25.1C300.316 23.852 299.932 22.964 299.164 22.436C298.42 21.884 297.4 21.608 296.104 21.608H294.736V17.756H296.176C297.064 17.756 297.808 17.492 298.408 16.964C299.032 16.412 299.344 15.536 299.344 14.336C299.344 13.256 299.08 12.476 298.552 11.996C298.048 11.492 297.316 11.24 296.356 11.24C295.276 11.24 294.304 11.744 293.44 12.752C293.488 13.04 293.524 13.352 293.548 13.688C293.596 14.024 293.62 14.36 293.62 14.696ZM283.756 14.84C283.756 15.752 283.96 16.544 284.368 17.216C284.8 17.888 285.472 18.224 286.384 18.224C287.344 18.224 288.028 17.876 288.436 17.18C288.844 16.484 289.048 15.644 289.048 14.66C289.048 13.724 288.844 12.92 288.436 12.248C288.028 11.576 287.404 11.24 286.564 11.24C285.7 11.24 285.016 11.54 284.512 12.14C284.008 12.716 283.756 13.616 283.756 14.84ZM325.712 27.368V22.436C326.24 22.436 326.732 22.364 327.188 22.22C327.644 22.052 328.028 21.764 328.34 21.356C328.676 20.924 328.928 20.36 329.096 19.664C329.288 18.944 329.384 18.044 329.384 16.964C329.384 16.172 329.324 15.428 329.204 14.732C329.108 14.036 328.94 13.436 328.7 12.932C328.484 12.404 328.208 11.996 327.872 11.708C327.536 11.396 327.14 11.24 326.684 11.24C325.916 11.24 325.304 11.48 324.848 11.96C324.416 12.44 324.08 13.076 323.84 13.868C323.6 14.636 323.444 15.5 323.372 16.46C323.324 17.42 323.3 18.38 323.3 19.34H317.9C317.9 18.476 317.864 17.576 317.792 16.64C317.744 15.68 317.612 14.804 317.396 14.012C317.18 13.22 316.868 12.572 316.46 12.068C316.076 11.54 315.548 11.264 314.876 11.24C313.94 11.192 313.172 11.612 312.572 12.5C311.996 13.364 311.708 14.816 311.708 16.856C311.708 18.056 311.876 19.028 312.212 19.772C312.572 20.516 313.004 21.092 313.508 21.5C314.012 21.908 314.54 22.184 315.092 22.328C315.644 22.448 316.124 22.508 316.532 22.508V26.612C315.308 26.612 314.12 26.396 312.968 25.964C311.816 25.532 310.796 24.908 309.908 24.092C309.044 23.252 308.348 22.244 307.82 21.068C307.292 19.868 307.028 18.512 307.028 17C307.028 15.656 307.16 14.396 307.424 13.22C307.688 12.044 308.12 11.024 308.72 10.16C309.344 9.296 310.148 8.624 311.132 8.144C312.14 7.64 313.388 7.388 314.876 7.388C316.556 7.388 317.84 7.7 318.728 8.324C319.64 8.948 320.3 9.776 320.708 10.808C321.236 9.776 321.98 8.948 322.94 8.324C323.924 7.7 325.208 7.388 326.792 7.388C328.28 7.388 329.492 7.664 330.428 8.216C331.364 8.768 332.096 9.464 332.624 10.304C333.152 11.12 333.512 11.996 333.704 12.932C333.896 13.868 333.992 14.708 333.992 15.452C333.992 16.604 333.884 17.636 333.668 18.548C333.452 19.436 333.164 20.24 332.804 20.96C333.212 20.888 333.608 20.828 333.992 20.78C334.376 20.732 334.712 20.684 335 20.636C335.336 20.588 335.66 20.552 335.972 20.528V24.812C335.204 24.764 334.376 24.764 333.488 24.812C332.6 24.86 331.688 25.004 330.752 25.244C330.008 25.436 329.264 25.688 328.52 26C327.776 26.312 326.852 26.768 325.748 27.368H325.712ZM350.06 6.992C349.46 7.064 348.92 7.136 348.44 7.208C347.984 7.256 347.552 7.34 347.144 7.46C348.416 7.628 349.4 8.012 350.096 8.612C350.792 9.188 351.32 9.92 351.68 10.808C352.208 9.776 352.952 8.948 353.912 8.324C354.896 7.7 356.18 7.388 357.764 7.388C359.252 7.388 360.464 7.676 361.4 8.252C362.336 8.804 363.068 9.536 363.596 10.448C364.124 11.36 364.484 12.392 364.676 13.544C364.868 14.672 364.964 15.824 364.964 17C364.964 18.512 364.76 19.868 364.352 21.068C363.944 22.268 363.368 23.288 362.624 24.128C361.904 24.944 361.028 25.568 359.996 26C358.988 26.432 357.884 26.648 356.684 26.648V22.436C357.068 22.436 357.476 22.376 357.908 22.256C358.34 22.112 358.736 21.848 359.096 21.464C359.456 21.056 359.756 20.504 359.996 19.808C360.236 19.088 360.356 18.14 360.356 16.964C360.356 16.172 360.296 15.428 360.176 14.732C360.08 14.036 359.924 13.436 359.708 12.932C359.492 12.404 359.216 11.996 358.88 11.708C358.568 11.396 358.184 11.24 357.728 11.24C356.96 11.24 356.348 11.468 355.892 11.924C355.436 12.38 355.088 12.992 354.848 13.76C354.608 14.504 354.452 15.356 354.38 16.316C354.308 17.252 354.272 18.2 354.272 19.16H348.872C348.872 18.296 348.836 17.396 348.764 16.46C348.716 15.524 348.584 14.672 348.368 13.904C348.152 13.136 347.84 12.512 347.432 12.032C347.048 11.528 346.52 11.264 345.848 11.24C344.888 11.192 344.12 11.612 343.544 12.5C342.968 13.364 342.68 14.816 342.68 16.856C342.68 18.056 342.848 19.028 343.184 19.772C343.544 20.516 343.976 21.092 344.48 21.5C344.984 21.908 345.512 22.184 346.064 22.328C346.616 22.448 347.096 22.508 347.504 22.508V26.612C346.28 26.612 345.092 26.396 343.94 25.964C342.788 25.532 341.768 24.908 340.88 24.092C340.016 23.252 339.32 22.244 338.792 21.068C338.264 19.868 338 18.512 338 17C338 16.712 338 16.436 338 16.172C338.024 15.884 338.048 15.608 338.072 15.344C338.12 13.52 338.432 11.852 339.008 10.34C339.248 9.692 339.548 9.044 339.908 8.396C340.292 7.748 340.748 7.136 341.276 6.56C341.828 5.984 342.476 5.48 343.22 5.048C343.964 4.616 344.828 4.292 345.812 4.076C346.604 3.908 347.384 3.752 348.152 3.608C348.944 3.464 349.652 3.296 350.276 3.104C350.924 2.888 351.452 2.636 351.86 2.348C352.292 2.06 352.544 1.676 352.616 1.196L357.404 1.232C357.404 2.288 357.248 3.164 356.936 3.86C356.624 4.532 356.156 5.084 355.532 5.516C354.932 5.924 354.176 6.236 353.264 6.452C352.352 6.668 351.284 6.848 350.06 6.992ZM375.644 8.396C376.34 8.396 376.976 8.492 377.552 8.684C378.128 8.852 378.656 9.068 379.136 9.332C379.016 6.452 377.816 5.012 375.536 5.012C374.6 5.012 373.844 5.216 373.268 5.624C372.692 6.032 372.404 6.74 372.404 7.748H367.832C367.832 6.596 368.036 5.612 368.444 4.796C368.876 3.956 369.44 3.272 370.136 2.744C370.856 2.192 371.684 1.784 372.62 1.52C373.556 1.256 374.528 1.124 375.536 1.124C378.392 1.124 380.456 1.856 381.728 3.32C383.024 4.76 383.672 6.812 383.672 9.476V17.756C383.672 18.764 383.552 19.796 383.312 20.852C383.072 21.884 382.64 22.832 382.016 23.696C381.392 24.536 380.54 25.232 379.46 25.784C378.404 26.336 377.048 26.612 375.392 26.612C373.952 26.612 372.704 26.396 371.648 25.964C370.616 25.532 369.752 24.92 369.056 24.128C368.36 23.312 367.844 22.352 367.508 21.248C367.172 20.12 367.004 18.872 367.004 17.504C367.004 15.968 367.232 14.624 367.688 13.472C368.168 12.32 368.804 11.372 369.596 10.628C370.388 9.884 371.3 9.332 372.332 8.972C373.388 8.588 374.492 8.396 375.644 8.396ZM375.536 22.724C376.544 22.724 377.384 22.28 378.056 21.392C378.728 20.48 379.064 19.184 379.064 17.504C379.064 15.92 378.74 14.66 378.092 13.724C377.444 12.764 376.616 12.284 375.608 12.284C374.48 12.284 373.532 12.728 372.764 13.616C372.02 14.48 371.648 15.788 371.648 17.54C371.648 19.268 371.948 20.564 372.548 21.428C373.172 22.292 374.168 22.724 375.536 22.724ZM395.119 7.82C395.119 9.212 395.227 10.304 395.443 11.096C395.683 11.888 396.115 12.524 396.739 13.004C397.483 13.58 398.119 14.12 398.647 14.624C399.175 15.128 399.595 15.644 399.907 16.172C400.243 16.7 400.483 17.276 400.627 17.9C400.795 18.5 400.879 19.196 400.879 19.988C400.879 20.9 400.711 21.752 400.375 22.544C400.063 23.336 399.595 24.044 398.971 24.668C398.347 25.268 397.591 25.736 396.703 26.072C395.815 26.432 394.807 26.612 393.679 26.612C391.495 26.612 389.755 26.072 388.459 24.992C387.187 23.888 386.551 22.304 386.551 20.24C386.551 19.64 386.611 19.04 386.731 18.44C386.803 18.128 386.875 17.816 386.947 17.504H391.627C391.531 17.792 391.447 18.08 391.375 18.368C391.327 18.632 391.279 18.932 391.231 19.268C391.183 19.604 391.159 19.94 391.159 20.276C391.159 20.9 391.375 21.476 391.807 22.004C392.239 22.508 392.863 22.76 393.679 22.76C394.471 22.76 395.083 22.508 395.515 22.004C395.947 21.5 396.163 20.9 396.163 20.204C396.163 19.412 395.983 18.716 395.623 18.116C395.263 17.492 394.735 16.904 394.039 16.352C393.439 15.896 392.911 15.404 392.455 14.876C392.023 14.348 391.651 13.748 391.339 13.076C391.051 12.404 390.835 11.648 390.691 10.808C390.547 9.944 390.475 8.948 390.475 7.82H395.119ZM402.899 19.124C402.899 17.564 403.007 16.232 403.223 15.128C403.463 14.024 403.715 13.112 403.979 12.392C404.291 11.552 404.663 10.844 405.095 10.268L408.947 11.816C408.683 12.344 408.455 12.98 408.263 13.724C408.095 14.348 407.939 15.116 407.795 16.028C407.675 16.94 407.615 17.984 407.615 19.16C407.615 22.448 408.047 24.992 408.911 26.792C409.775 28.616 411.071 29.528 412.799 29.528C413.471 29.528 414.059 29.396 414.563 29.132C415.067 28.868 415.487 28.52 415.823 28.088C416.183 27.68 416.447 27.212 416.615 26.684C416.783 26.156 416.867 25.628 416.867 25.1C416.867 24.332 416.711 23.696 416.399 23.192C416.087 22.688 415.703 22.292 415.247 22.004C414.791 21.692 414.299 21.476 413.771 21.356C413.243 21.236 412.763 21.176 412.331 21.176C412.091 21.176 411.863 21.188 411.647 21.212C411.455 21.212 411.263 21.212 411.071 21.212C410.855 21.236 410.663 21.248 410.495 21.248V17.18C410.759 17.204 411.011 17.228 411.251 17.252C411.443 17.276 411.647 17.3 411.863 17.324C412.079 17.324 412.259 17.324 412.403 17.324C412.787 17.324 413.195 17.288 413.627 17.216C414.059 17.144 414.455 17.024 414.815 16.856C415.199 16.664 415.511 16.424 415.751 16.136C416.015 15.824 416.147 15.428 416.147 14.948C416.147 13.772 415.391 12.992 413.879 12.608C413.135 12.416 412.499 12.2 411.971 11.96C411.467 11.72 411.047 11.408 410.711 11.024C410.399 10.616 410.171 10.124 410.027 9.548C409.883 8.948 409.811 8.216 409.811 7.352H414.419C414.419 7.832 414.503 8.192 414.671 8.432C414.863 8.672 415.103 8.852 415.391 8.972C415.679 9.092 415.991 9.188 416.327 9.26C416.663 9.332 416.999 9.428 417.335 9.548C418.631 10.028 419.531 10.736 420.035 11.672C420.563 12.584 420.827 13.58 420.827 14.66C420.827 15.74 420.563 16.676 420.035 17.468C419.507 18.236 418.787 18.836 417.875 19.268C418.931 19.748 419.795 20.456 420.467 21.392C421.163 22.328 421.511 23.504 421.511 24.92C421.511 26 421.307 27.056 420.899 28.088C420.491 29.12 419.903 30.032 419.135 30.824C418.367 31.616 417.431 32.252 416.327 32.732C415.223 33.212 413.975 33.452 412.583 33.452C410.687 33.452 409.115 33.032 407.867 32.192C406.619 31.376 405.623 30.296 404.879 28.952C404.159 27.608 403.643 26.084 403.331 24.38C403.043 22.652 402.899 20.9 402.899 19.124ZM431.959 26.648C429.343 26.648 427.291 25.82 425.803 24.164C424.315 22.484 423.571 20.144 423.571 17.144C423.571 15.776 423.799 14.492 424.255 13.292C424.735 12.068 425.407 11 426.271 10.088C427.159 9.176 428.215 8.456 429.439 7.928C430.687 7.376 432.079 7.1 433.615 7.1C435.103 7.1 436.435 7.376 437.611 7.928C438.811 8.456 439.819 9.176 440.635 10.088C441.475 11 442.111 12.056 442.543 13.256C442.999 14.432 443.227 15.668 443.227 16.964C443.227 18.5 443.023 19.868 442.615 21.068C442.207 22.268 441.631 23.288 440.887 24.128C440.143 24.944 439.255 25.568 438.223 26C437.215 26.432 436.099 26.648 434.875 26.648V22.796C435.283 22.796 435.703 22.7 436.135 22.508C436.567 22.316 436.963 21.992 437.323 21.536C437.683 21.056 437.971 20.432 438.187 19.664C438.427 18.896 438.547 17.948 438.547 16.82C438.547 14.852 438.079 13.388 437.143 12.428C436.207 11.468 435.031 10.988 433.615 10.988C432.895 10.988 432.199 11.12 431.527 11.384C430.879 11.624 430.315 11.996 429.835 12.5C429.355 12.98 428.971 13.592 428.683 14.336C428.395 15.056 428.251 15.896 428.251 16.856C428.251 17.984 428.371 18.932 428.611 19.7C428.851 20.468 429.151 21.092 429.511 21.572C429.895 22.028 430.303 22.352 430.735 22.544C431.167 22.736 431.575 22.832 431.959 22.832V26.648ZM453.83 7.82C453.83 9.212 453.938 10.304 454.154 11.096C454.394 11.888 454.826 12.524 455.45 13.004C456.194 13.58 456.83 14.12 457.358 14.624C457.886 15.128 458.306 15.644 458.618 16.172C458.954 16.7 459.194 17.276 459.338 17.9C459.506 18.5 459.59 19.196 459.59 19.988C459.59 20.9 459.422 21.752 459.086 22.544C458.774 23.336 458.306 24.044 457.682 24.668C457.058 25.268 456.302 25.736 455.414 26.072C454.526 26.432 453.518 26.612 452.39 26.612C450.206 26.612 448.466 26.072 447.17 24.992C445.898 23.888 445.262 22.304 445.262 20.24C445.262 19.64 445.322 19.04 445.442 18.44C445.514 18.128 445.586 17.816 445.658 17.504H450.338C450.242 17.792 450.158 18.08 450.086 18.368C450.038 18.632 449.99 18.932 449.942 19.268C449.894 19.604 449.87 19.94 449.87 20.276C449.87 20.9 450.086 21.476 450.518 22.004C450.95 22.508 451.574 22.76 452.39 22.76C453.182 22.76 453.794 22.508 454.226 22.004C454.658 21.5 454.874 20.9 454.874 20.204C454.874 19.412 454.694 18.716 454.334 18.116C453.974 17.492 453.446 16.904 452.75 16.352C452.15 15.896 451.622 15.404 451.166 14.876C450.734 14.348 450.362 13.748 450.05 13.076C449.762 12.404 449.546 11.648 449.402 10.808C449.258 9.944 449.186 8.948 449.186 7.82H453.83Z" fill="#4E6FAE"/>
</svg>
