<svg width="427" height="20" viewBox="0 0 427 20" fill="none" xmlns="http://www.w3.org/2000/svg">
<path d="M5.22 19.24C4.26 19.24 3.44 19.06 2.76 18.7C2.09333 18.34 1.58 17.8333 1.22 17.18C0.873333 16.54 0.7 15.8 0.7 14.96C0.7 14.6133 0.733333 14.28 0.8 13.96C0.88 13.64 0.986667 13.3067 1.12 12.96H2.86C2.75333 13.24 2.66667 13.5467 2.6 13.88C2.53333 14.2133 2.5 14.5133 2.5 14.78C2.5 15.6867 2.72667 16.4067 3.18 16.94C3.64667 17.4733 4.32667 17.74 5.22 17.74C6.15333 17.74 6.84 17.4467 7.28 16.86C7.72 16.2867 7.94 15.4067 7.94 14.22V9.64C7.94 8.61333 7.74 7.79333 7.34 7.18C6.94 6.56667 6.30667 6.26 5.44 6.26C4.92 6.26 4.46667 6.36 4.08 6.56C3.70667 6.76 3.42 7.04 3.22 7.4C3.03333 7.74667 2.94 8.14 2.94 8.58C2.94 8.99333 2.96667 9.33333 3.02 9.6H1.26C1.23333 9.49333 1.20667 9.34 1.18 9.14C1.15333 8.94 1.14 8.73333 1.14 8.52C1.14 7.88 1.31333 7.27333 1.66 6.7C2.02 6.11333 2.52667 5.64667 3.18 5.3C3.83333 4.94 4.58667 4.76 5.44 4.76C6.37333 4.76 7.16 4.98 7.8 5.42C8.44 5.84667 8.91333 6.42667 9.22 7.16C9.52667 7.89333 9.68 8.7 9.68 9.58V14.38C9.68 15.9667 9.29333 17.1733 8.52 18C7.74667 18.8267 6.64667 19.24 5.22 19.24ZM22.7813 19C22.6346 18.28 22.1413 17.74 21.3013 17.38C20.4613 17.02 19.4013 16.84 18.1213 16.84H13.4212V15.52H15.3013V15.44C14.5813 15.24 13.9413 14.8733 13.3813 14.34C12.8346 13.7933 12.4079 13.14 12.1012 12.38C11.8079 11.6067 11.6613 10.7733 11.6613 9.88C11.6613 8.25333 11.9613 6.99333 12.5613 6.1C13.1746 5.20667 14.0613 4.76 15.2213 4.76C15.8613 4.76 16.4079 4.93333 16.8613 5.28C17.3146 5.61333 17.6479 6.12667 17.8613 6.82H17.9413C18.1146 6.12667 18.4279 5.61333 18.8813 5.28C19.3479 4.93333 19.8946 4.76 20.5213 4.76C21.2013 4.76 21.7413 4.92667 22.1413 5.26C22.5546 5.58 22.8546 6.1 23.0413 6.82H23.1213C23.3346 6.14 23.6879 5.62667 24.1813 5.28C24.6746 4.93333 25.2279 4.76 25.8413 4.76C26.6146 4.76 27.2613 4.97333 27.7813 5.4C28.3013 5.81333 28.6879 6.4 28.9413 7.16C29.2079 7.92 29.3413 8.80667 29.3413 9.82C29.3413 10.6467 29.2613 11.4133 29.1013 12.12C28.9546 12.8267 28.7213 13.5 28.4013 14.14H26.5413C27.2079 12.8867 27.5413 11.4733 27.5413 9.9C27.5413 8.67333 27.3813 7.76 27.0613 7.16C26.7546 6.56 26.2813 6.26 25.6413 6.26C25.1213 6.26 24.7146 6.48 24.4213 6.92C24.1413 7.34667 24.0013 7.92 24.0013 8.64V12.26H22.2013V8.64C22.2013 7.86667 22.0679 7.28 21.8012 6.88C21.5346 6.46667 21.1079 6.26 20.5213 6.26C19.9346 6.26 19.5013 6.47333 19.2213 6.9C18.9546 7.31333 18.8213 7.89333 18.8213 8.64V12.26H17.0213V8.64C17.0213 7.89333 16.8746 7.31333 16.5813 6.9C16.3013 6.47333 15.8946 6.26 15.3613 6.26C14.6946 6.26 14.2079 6.56 13.9013 7.16C13.6079 7.76 13.4613 8.66667 13.4613 9.88C13.4613 10.9333 13.6679 11.8467 14.0813 12.62C14.5079 13.38 15.0479 13.98 15.7013 14.42C16.3679 14.86 17.0746 15.1467 17.8213 15.28C18.1146 15.3333 18.5346 15.3933 19.0813 15.46C19.1879 15.4733 19.4479 15.5067 19.8613 15.56C20.2879 15.6267 20.6679 15.6933 21.0013 15.76C21.3346 15.84 21.6146 15.92 21.8413 16C23.5746 16.5867 24.4946 17.5867 24.6013 19H22.7813ZM34.0948 15H31.8748V12.78H34.0948V15ZM50.7277 19.24C49.181 19.24 47.9477 18.9533 47.0277 18.38C46.1077 17.8067 45.6077 16.9267 45.5277 15.74H47.3477C47.5077 16.5 47.881 17.02 48.4677 17.3C49.0677 17.58 49.8477 17.72 50.8077 17.72C51.861 17.72 52.721 17.5333 53.3877 17.16C54.0677 16.8 54.4077 16.1733 54.4077 15.28C54.4077 14.6133 54.2343 14.0733 53.8877 13.66C53.5543 13.2333 53.041 13.02 52.3477 13.02H51.9877V11.54H52.5877C53.321 11.5267 53.8543 11.3067 54.1877 10.88C54.521 10.44 54.6877 9.80667 54.6877 8.98C54.6877 8.12667 54.5143 7.45333 54.1677 6.96C53.821 6.46667 53.3143 6.22 52.6477 6.22C52.0477 6.22 51.5743 6.42 51.2277 6.82C50.8943 7.20667 50.7277 7.74 50.7277 8.42V9.36C50.7277 10.2933 50.5543 11.1067 50.2077 11.8C49.861 12.4933 49.3677 13.0267 48.7277 13.4C48.0877 13.7733 47.3343 13.96 46.4677 13.96C45.601 13.96 44.841 13.7733 44.1877 13.4C43.5477 13.0133 43.0543 12.4733 42.7077 11.78C42.361 11.0867 42.1877 10.28 42.1877 9.36C42.1877 8.44 42.361 7.63333 42.7077 6.94C43.0543 6.24667 43.541 5.71333 44.1677 5.34C44.7943 4.95333 45.5143 4.76 46.3277 4.76C47.141 4.76 47.8477 4.93333 48.4477 5.28C49.061 5.61333 49.501 6.12 49.7677 6.8H49.8277C50.0277 6.10667 50.3877 5.59333 50.9077 5.26C51.4277 4.92667 52.061 4.76 52.8077 4.76C53.5677 4.76 54.221 4.94 54.7677 5.3C55.3277 5.64667 55.7543 6.12667 56.0477 6.74C56.3543 7.35333 56.5077 8.04 56.5077 8.8C56.5077 9.70667 56.321 10.4667 55.9477 11.08C55.5743 11.68 55.0743 12.1 54.4477 12.34V12.42C55.101 12.74 55.561 13.1467 55.8277 13.64C56.0943 14.12 56.2277 14.7133 56.2277 15.42C56.2277 16.1933 56.021 16.8667 55.6077 17.44C55.1943 18.0133 54.5743 18.4533 53.7477 18.76C52.9343 19.08 51.9277 19.24 50.7277 19.24ZM46.4677 12.56C47.041 12.56 47.521 12.42 47.9077 12.14C48.2943 11.86 48.581 11.48 48.7677 11C48.9677 10.52 49.0677 9.97333 49.0677 9.36C49.0677 8.4 48.841 7.63333 48.3877 7.06C47.9477 6.47333 47.3143 6.18 46.4877 6.18C45.9143 6.18 45.4277 6.32 45.0277 6.6C44.641 6.86667 44.3477 7.24 44.1477 7.72C43.961 8.2 43.8677 8.74667 43.8677 9.36C43.8677 9.96 43.961 10.5067 44.1477 11C44.3477 11.48 44.641 11.86 45.0277 12.14C45.4277 12.42 45.9077 12.56 46.4677 12.56ZM67.9438 15C68.4504 14.2267 68.8238 13.42 69.0638 12.58C69.3171 11.74 69.4438 10.8467 69.4438 9.9C69.4438 8.67333 69.2504 7.76 68.8638 7.16C68.4904 6.56 67.9571 6.26 67.2638 6.26C66.7304 6.26 66.3104 6.48 66.0038 6.92C65.7104 7.34667 65.5638 7.92 65.5638 8.64V12.26H63.7838V8.64C63.7838 7.89333 63.6371 7.31333 63.3438 6.9C63.0504 6.47333 62.6438 6.26 62.1238 6.26C61.4171 6.26 60.8771 6.56 60.5038 7.16C60.1438 7.76 59.9638 8.66667 59.9638 9.88C59.9638 10.7867 60.0904 11.68 60.3438 12.56C60.5971 13.4267 60.9638 14.24 61.4438 15H59.6438C59.1638 14.24 58.7971 13.4333 58.5438 12.58C58.3038 11.7267 58.1838 10.7933 58.1838 9.78C58.1838 8.75333 58.3238 7.86667 58.6038 7.12C58.8971 6.36 59.3171 5.78 59.8638 5.38C60.4104 4.96667 61.0704 4.76 61.8438 4.76C62.5504 4.76 63.1238 4.92667 63.5638 5.26C64.0171 5.58 64.3638 6.09333 64.6038 6.8H64.6838C64.9238 6.10667 65.2904 5.59333 65.7838 5.26C66.2904 4.92667 66.8771 4.76 67.5438 4.76C68.3171 4.76 68.9771 4.97333 69.5238 5.4C70.0838 5.82667 70.5038 6.42 70.7838 7.18C71.0771 7.94 71.2238 8.82 71.2238 9.82C71.2238 10.8333 71.1038 11.7733 70.8638 12.64C70.6238 13.4933 70.2571 14.28 69.7638 15H67.9438ZM77.7303 15.24C76.7836 15.24 75.9703 15.0533 75.2903 14.68C74.6236 14.3067 74.1103 13.7667 73.7503 13.06C73.3903 12.34 73.2103 11.4867 73.2103 10.5V-1.19209e-06H74.9503V10.4C74.9503 11.0533 75.057 11.6333 75.2703 12.14C75.4836 12.6467 75.797 13.04 76.2103 13.32C76.6236 13.6 77.1303 13.74 77.7303 13.74C78.3303 13.74 78.837 13.6133 79.2503 13.36C79.6636 13.0933 79.9703 12.7467 80.1703 12.32C80.3836 11.8933 80.4903 11.42 80.4903 10.9C80.4903 10.3533 80.4036 9.88667 80.2303 9.5C80.0703 9.11333 79.8303 8.72667 79.5103 8.34L79.2103 7.98C78.9303 7.66 78.7103 7.38 78.5503 7.14C78.3903 6.9 78.2436 6.60667 78.1103 6.26C77.9903 5.9 77.9236 5.48 77.9103 5H79.7103C79.7236 5.34667 79.7836 5.66 79.8903 5.94C80.0103 6.20667 80.1436 6.44 80.2903 6.64C80.4503 6.84 80.6703 7.10667 80.9503 7.44C81.377 7.94667 81.7103 8.47333 81.9503 9.02C82.1903 9.55333 82.3103 10.24 82.3103 11.08C82.3103 11.84 82.1103 12.54 81.7103 13.18C81.3236 13.8067 80.777 14.3067 80.0703 14.68C79.377 15.0533 78.597 15.24 77.7303 15.24ZM89.7455 19.24C88.5855 19.24 87.5655 18.9467 86.6855 18.36C85.8188 17.7733 85.1455 16.9333 84.6655 15.84C84.1855 14.76 83.9455 13.5 83.9455 12.06C83.9455 10.74 84.1455 9.56 84.5455 8.52C84.9588 7.48 85.5388 6.64 86.2855 6C87.0321 5.36 87.8988 4.97333 88.8855 4.84H89.0255C88.9721 4.54667 88.9388 4.22 88.9255 3.86C88.9121 3.5 88.9055 3.14667 88.9055 2.8H90.5655C90.5655 3.14667 90.5588 3.5 90.5455 3.86C90.5321 4.22 90.5055 4.54667 90.4655 4.84H90.5855C91.5855 4.97333 92.4588 5.36 93.2055 6C93.9521 6.62667 94.5255 7.46 94.9255 8.5C95.3255 9.54 95.5255 10.7267 95.5255 12.06C95.5255 13.5 95.2855 14.76 94.8055 15.84C94.3255 16.9333 93.6455 17.7733 92.7655 18.36C91.8988 18.9467 90.8921 19.24 89.7455 19.24ZM89.7455 17.72C90.6121 17.72 91.3455 17.48 91.9455 17C92.5455 16.5333 92.9921 15.8733 93.2855 15.02C93.5788 14.1667 93.7255 13.18 93.7255 12.06C93.7255 11.06 93.6055 10.1467 93.3655 9.32C93.1255 8.49333 92.7655 7.81333 92.2855 7.28C91.8188 6.73333 91.2521 6.38667 90.5855 6.24L90.3855 6.14C90.4521 6.55333 90.5055 7 90.5455 7.48C90.5855 7.94667 90.6055 8.36 90.6055 8.72V12.26H88.8855V8.72C88.8855 8.32 88.9055 7.88667 88.9455 7.42C88.9855 6.94 89.0388 6.51333 89.1055 6.14L88.8855 6.22C88.2055 6.36667 87.6321 6.71333 87.1655 7.26C86.6988 7.80667 86.3455 8.49333 86.1055 9.32C85.8655 10.1467 85.7455 11.06 85.7455 12.06C85.7455 13.18 85.8921 14.16 86.1855 15C86.4921 15.8533 86.9455 16.52 87.5455 17C88.1455 17.48 88.8788 17.72 89.7455 17.72ZM101.507 15.24C100.561 15.24 99.7605 15.06 99.1072 14.7C98.4539 14.34 97.9605 13.8533 97.6272 13.24C97.2939 12.6133 97.1272 11.9067 97.1272 11.12C97.1272 10.56 97.2272 10 97.4272 9.44H99.1872C99.0139 9.96 98.9272 10.4533 98.9272 10.92C98.9272 11.4533 99.0205 11.9333 99.2072 12.36C99.3939 12.7867 99.6805 13.1267 100.067 13.38C100.467 13.62 100.947 13.74 101.507 13.74C102.067 13.74 102.541 13.62 102.927 13.38C103.314 13.1267 103.601 12.8 103.787 12.4C103.987 11.9867 104.087 11.54 104.087 11.06C104.087 10.58 104.001 10.1533 103.827 9.78C103.654 9.40667 103.434 9.08667 103.167 8.82C102.914 8.55333 102.574 8.24 102.147 7.88C101.707 7.50667 101.367 7.19333 101.127 6.94C100.887 6.67333 100.681 6.36 100.507 6C100.334 5.64 100.247 5.22667 100.247 4.76H102.087C102.127 5.06667 102.221 5.35333 102.367 5.62C102.527 5.87333 102.707 6.10667 102.907 6.32C103.121 6.52 103.394 6.76 103.727 7.04C104.194 7.45333 104.567 7.82 104.847 8.14C105.141 8.46 105.387 8.86 105.587 9.34C105.787 9.82 105.887 10.3867 105.887 11.04C105.887 11.7733 105.714 12.46 105.367 13.1C105.021 13.74 104.514 14.26 103.847 14.66C103.194 15.0467 102.414 15.24 101.507 15.24ZM110.599 6.88H108.379V4.66H110.599V6.88ZM110.599 15H108.379V12.78H110.599V15Z" fill="#7E8898"/>
<path d="M129.272 2.32H121.312V6.86H128.732V8.46H121.312V13.4H129.332V15H119.412V0.719999H129.272V2.32ZM140.598 15H138.898V13.6H138.858C138.591 14.12 138.165 14.5267 137.578 14.82C137.005 15.1 136.331 15.24 135.558 15.24C134.611 15.24 133.778 15.0133 133.058 14.56C132.338 14.0933 131.778 13.4533 131.378 12.64C130.991 11.8133 130.798 10.8667 130.798 9.8C130.798 8.74667 130.985 7.81333 131.358 7C131.731 6.18667 132.271 5.55333 132.978 5.1C133.685 4.64667 134.525 4.42 135.498 4.42C136.191 4.42 136.845 4.56667 137.458 4.86C138.085 5.14 138.551 5.53333 138.858 6.04H138.898V0.719999H140.598V15ZM132.598 9.92C132.598 10.6533 132.725 11.3133 132.978 11.9C133.245 12.4733 133.618 12.9267 134.098 13.26C134.578 13.58 135.145 13.74 135.798 13.74C136.465 13.74 137.031 13.58 137.498 13.26C137.978 12.9267 138.338 12.4667 138.578 11.88C138.831 11.28 138.958 10.6 138.958 9.84C138.958 9.05333 138.831 8.36667 138.578 7.78C138.325 7.19333 137.951 6.74 137.458 6.42C136.965 6.08667 136.371 5.92 135.678 5.92C135.038 5.92 134.485 6.08 134.018 6.4C133.551 6.72 133.198 7.18667 132.958 7.8C132.718 8.4 132.598 9.10667 132.598 9.92ZM144.914 11.7C144.914 12.1 145 12.4533 145.174 12.76C145.347 13.0667 145.587 13.3067 145.894 13.48C146.214 13.6533 146.587 13.74 147.014 13.74C147.667 13.74 148.22 13.6067 148.674 13.34C149.127 13.0733 149.474 12.7 149.714 12.22C149.954 11.74 150.074 11.1867 150.074 10.56V4.66H151.774V15H150.174V13.36H150.134C149.427 14.6133 148.307 15.24 146.774 15.24C145.574 15.24 144.68 14.9333 144.094 14.32C143.507 13.7067 143.214 12.7867 143.214 11.56V4.66H144.914V11.7ZM158.647 4.42C159.914 4.42 160.94 4.72667 161.727 5.34C162.514 5.94 162.974 6.82 163.107 7.98H161.347C161.214 7.31333 160.92 6.80667 160.467 6.46C160.027 6.1 159.467 5.92 158.787 5.92C157.747 5.92 156.947 6.27333 156.387 6.98C155.84 7.67333 155.567 8.66667 155.567 9.96C155.567 10.7067 155.687 11.3667 155.927 11.94C156.167 12.5133 156.514 12.96 156.967 13.28C157.434 13.5867 157.974 13.74 158.587 13.74C159.4 13.74 160.047 13.52 160.527 13.08C161.02 12.64 161.32 12.02 161.427 11.22H163.167C162.98 12.5133 162.494 13.5067 161.707 14.2C160.92 14.8933 159.887 15.24 158.607 15.24C157.607 15.24 156.74 15.0267 156.007 14.6C155.287 14.1733 154.734 13.5667 154.347 12.78C153.96 11.98 153.767 11.04 153.767 9.96C153.767 8.84 153.96 7.86667 154.347 7.04C154.747 6.2 155.314 5.55333 156.047 5.1C156.78 4.64667 157.647 4.42 158.647 4.42ZM169.309 4.42C170.696 4.42 171.682 4.66667 172.269 5.16C172.869 5.64 173.169 6.32 173.169 7.2V13.16C173.169 13.5467 173.349 13.74 173.709 13.74C173.882 13.74 174.056 13.7067 174.229 13.64V14.96C173.896 15.1467 173.489 15.24 173.009 15.24C172.542 15.24 172.182 15.1067 171.929 14.84C171.689 14.5733 171.569 14.1733 171.569 13.64C170.662 14.7067 169.449 15.24 167.929 15.24C166.862 15.24 166.022 14.9867 165.409 14.48C164.809 13.9733 164.509 13.26 164.509 12.34C164.509 11.4067 164.809 10.6733 165.409 10.14C165.969 9.59333 167.362 9.18 169.589 8.9C170.082 8.84667 170.462 8.76667 170.729 8.66C171.009 8.55333 171.202 8.42 171.309 8.26C171.429 8.08667 171.489 7.87333 171.489 7.62C171.489 7.04667 171.302 6.62 170.929 6.34C170.556 6.06 169.976 5.92 169.189 5.92C168.349 5.92 167.716 6.08 167.289 6.4C166.876 6.72 166.649 7.21333 166.609 7.88H164.909C164.962 6.73333 165.362 5.87333 166.109 5.3C166.869 4.71333 167.936 4.42 169.309 4.42ZM166.309 12.22C166.309 12.7 166.482 13.0733 166.829 13.34C167.189 13.6067 167.682 13.74 168.309 13.74C168.936 13.74 169.489 13.6333 169.969 13.42C170.449 13.1933 170.816 12.9067 171.069 12.56C171.336 12.2 171.469 11.8267 171.469 11.44V9.66C171.336 9.75333 171.156 9.84 170.929 9.92C170.716 10 170.496 10.0533 170.269 10.08L168.529 10.34C167.769 10.4467 167.209 10.6533 166.849 10.96C166.489 11.2667 166.309 11.6867 166.309 12.22ZM178.171 4.66H180.231V6.16H178.171V12.64C178.171 12.9067 178.211 13.1067 178.291 13.24C178.385 13.3733 178.518 13.4467 178.691 13.46C179.145 13.4867 179.498 13.5 179.751 13.5H180.231V15H178.831C178.205 15 177.718 14.9333 177.371 14.8C177.038 14.6533 176.805 14.4267 176.671 14.12C176.538 13.8133 176.471 13.3867 176.471 12.84V6.16H174.711V4.66H176.471V1.56H178.171V4.66ZM183.92 2.8H182.22V0.719999H183.92V2.8ZM183.92 15H182.22V4.66H183.92V15ZM191.013 4.42C192.053 4.42 192.947 4.65333 193.693 5.12C194.453 5.57333 195.033 6.21333 195.433 7.04C195.833 7.85333 196.033 8.78667 196.033 9.84C196.033 10.8933 195.827 11.8333 195.413 12.66C195 13.4733 194.413 14.1067 193.653 14.56C192.893 15.0133 192.013 15.24 191.013 15.24C190.013 15.24 189.133 15.02 188.373 14.58C187.627 14.14 187.04 13.5133 186.613 12.7C186.2 11.8733 185.993 10.92 185.993 9.84C185.993 8.74667 186.193 7.79333 186.593 6.98C187.007 6.16667 187.587 5.54 188.333 5.1C189.093 4.64667 189.987 4.42 191.013 4.42ZM187.793 9.84C187.793 10.6133 187.927 11.2933 188.193 11.88C188.473 12.4667 188.853 12.9267 189.333 13.26C189.827 13.58 190.387 13.74 191.013 13.74C191.627 13.74 192.18 13.58 192.673 13.26C193.167 12.9267 193.547 12.4667 193.813 11.88C194.093 11.2933 194.233 10.6133 194.233 9.84C194.233 9.06667 194.093 8.38667 193.813 7.8C193.533 7.2 193.147 6.74 192.653 6.42C192.173 6.08667 191.62 5.92 190.993 5.92C190.393 5.92 189.847 6.08 189.353 6.4C188.873 6.72 188.493 7.18 188.213 7.78C187.933 8.36667 187.793 9.05333 187.793 9.84ZM203.038 4.42C204.264 4.42 205.164 4.73333 205.738 5.36C206.311 5.98667 206.598 6.90667 206.598 8.12V15H204.898V7.94C204.898 7.55333 204.811 7.20667 204.638 6.9C204.478 6.59333 204.238 6.35333 203.918 6.18C203.611 6.00667 203.231 5.92 202.778 5.92C202.138 5.92 201.591 6.05333 201.138 6.32C200.684 6.58667 200.338 6.96 200.098 7.44C199.858 7.92 199.738 8.47333 199.738 9.1V15H198.038V4.66H199.638V6.3H199.678C200.051 5.66 200.511 5.18667 201.058 4.88C201.618 4.57333 202.278 4.42 203.038 4.42ZM214.251 4.42C215.238 4.42 216.084 4.65333 216.791 5.12C217.511 5.57333 218.058 6.21333 218.431 7.04C218.818 7.85333 219.011 8.79333 219.011 9.86C219.011 10.9133 218.818 11.8467 218.431 12.66C218.058 13.4733 217.511 14.1067 216.791 14.56C216.084 15.0133 215.251 15.24 214.291 15.24C213.611 15.24 212.971 15.1067 212.371 14.84C211.771 14.56 211.298 14.1533 210.951 13.62H210.911V18.96H209.211V4.66H210.911V6.06H210.951C211.218 5.52667 211.638 5.12 212.211 4.84C212.784 4.56 213.464 4.42 214.251 4.42ZM210.851 9.82C210.851 10.6067 210.978 11.3 211.231 11.9C211.498 12.4867 211.871 12.94 212.351 13.26C212.844 13.58 213.431 13.74 214.111 13.74C214.764 13.74 215.318 13.5867 215.771 13.28C216.238 12.96 216.591 12.5 216.831 11.9C217.084 11.3 217.211 10.58 217.211 9.74C217.211 9.00667 217.078 8.35333 216.811 7.78C216.558 7.19333 216.184 6.74 215.691 6.42C215.211 6.08667 214.644 5.92 213.991 5.92C213.324 5.92 212.751 6.08667 212.271 6.42C211.804 6.75333 211.451 7.21333 211.211 7.8C210.971 8.38667 210.851 9.06 210.851 9.82ZM226.387 4.42V6.22C225.12 6.22 224.18 6.56 223.567 7.24C222.953 7.92 222.647 8.96667 222.647 10.38V15H220.947V4.66H222.547V6.84H222.587C222.987 6.01333 223.473 5.40667 224.047 5.02C224.633 4.62 225.333 4.42 226.147 4.42H226.387ZM231.775 4.42C232.815 4.42 233.708 4.65333 234.455 5.12C235.215 5.57333 235.795 6.21333 236.195 7.04C236.595 7.85333 236.795 8.78667 236.795 9.84C236.795 10.8933 236.588 11.8333 236.175 12.66C235.762 13.4733 235.175 14.1067 234.415 14.56C233.655 15.0133 232.775 15.24 231.775 15.24C230.775 15.24 229.895 15.02 229.135 14.58C228.388 14.14 227.802 13.5133 227.375 12.7C226.962 11.8733 226.755 10.92 226.755 9.84C226.755 8.74667 226.955 7.79333 227.355 6.98C227.768 6.16667 228.348 5.54 229.095 5.1C229.855 4.64667 230.748 4.42 231.775 4.42ZM228.555 9.84C228.555 10.6133 228.688 11.2933 228.955 11.88C229.235 12.4667 229.615 12.9267 230.095 13.26C230.588 13.58 231.148 13.74 231.775 13.74C232.388 13.74 232.942 13.58 233.435 13.26C233.928 12.9267 234.308 12.4667 234.575 11.88C234.855 11.2933 234.995 10.6133 234.995 9.84C234.995 9.06667 234.855 8.38667 234.575 7.8C234.295 7.2 233.908 6.74 233.415 6.42C232.935 6.08667 232.382 5.92 231.755 5.92C231.155 5.92 230.608 6.08 230.115 6.4C229.635 6.72 229.255 7.18 228.975 7.78C228.695 8.36667 228.555 9.05333 228.555 9.84ZM243 4.42C243.706 4.42 244.326 4.57333 244.86 4.88C245.393 5.18667 245.806 5.60667 246.1 6.14H246.12V4.66H247.72V14.22C247.72 17.54 246.126 19.2 242.94 19.2C242.153 19.2 241.44 19.08 240.8 18.84C240.16 18.6133 239.646 18.2733 239.26 17.82C238.873 17.3667 238.666 16.8133 238.64 16.16H240.34C240.353 16.5067 240.486 16.8067 240.74 17.06C241.006 17.3133 241.34 17.5067 241.74 17.64C242.14 17.7733 242.566 17.84 243.02 17.84C244.02 17.84 244.786 17.5067 245.32 16.84C245.853 16.1733 246.12 15.1867 246.12 13.88V13.24H246.08C245.813 13.8133 245.386 14.2733 244.8 14.62C244.226 14.9533 243.58 15.12 242.86 15.12C241.94 15.12 241.126 14.9 240.42 14.46C239.726 14.02 239.186 13.4067 238.8 12.62C238.426 11.82 238.24 10.9067 238.24 9.88C238.24 8.82667 238.426 7.88667 238.8 7.06C239.173 6.23333 239.72 5.58667 240.44 5.12C241.16 4.65333 242.013 4.42 243 4.42ZM240.04 9.68C240.04 10.48 240.153 11.18 240.38 11.78C240.606 12.3667 240.94 12.82 241.38 13.14C241.82 13.46 242.346 13.62 242.96 13.62C243.573 13.62 244.113 13.4533 244.58 13.12C245.046 12.7867 245.406 12.32 245.66 11.72C245.913 11.12 246.04 10.42 246.04 9.62C246.04 8.88667 245.92 8.24667 245.68 7.7C245.453 7.14 245.12 6.70667 244.68 6.4C244.24 6.08 243.706 5.92 243.08 5.92C242.453 5.92 241.913 6.08 241.46 6.4C241.006 6.70667 240.653 7.14667 240.4 7.72C240.16 8.28 240.04 8.93333 240.04 9.68ZM255.664 4.42V6.22C254.397 6.22 253.457 6.56 252.844 7.24C252.231 7.92 251.924 8.96667 251.924 10.38V15H250.224V4.66H251.824V6.84H251.864C252.264 6.01333 252.751 5.40667 253.324 5.02C253.911 4.62 254.611 4.42 255.424 4.42H255.664ZM260.696 4.42C262.082 4.42 263.069 4.66667 263.656 5.16C264.256 5.64 264.556 6.32 264.556 7.2V13.16C264.556 13.5467 264.736 13.74 265.096 13.74C265.269 13.74 265.442 13.7067 265.616 13.64V14.96C265.282 15.1467 264.876 15.24 264.396 15.24C263.929 15.24 263.569 15.1067 263.316 14.84C263.076 14.5733 262.956 14.1733 262.956 13.64C262.049 14.7067 260.836 15.24 259.316 15.24C258.249 15.24 257.409 14.9867 256.796 14.48C256.196 13.9733 255.896 13.26 255.896 12.34C255.896 11.4067 256.196 10.6733 256.796 10.14C257.356 9.59333 258.749 9.18 260.976 8.9C261.469 8.84667 261.849 8.76667 262.116 8.66C262.396 8.55333 262.589 8.42 262.696 8.26C262.816 8.08667 262.876 7.87333 262.876 7.62C262.876 7.04667 262.689 6.62 262.316 6.34C261.942 6.06 261.362 5.92 260.576 5.92C259.736 5.92 259.102 6.08 258.676 6.4C258.262 6.72 258.036 7.21333 257.996 7.88H256.296C256.349 6.73333 256.749 5.87333 257.496 5.3C258.256 4.71333 259.322 4.42 260.696 4.42ZM257.696 12.22C257.696 12.7 257.869 13.0733 258.216 13.34C258.576 13.6067 259.069 13.74 259.696 13.74C260.322 13.74 260.876 13.6333 261.356 13.42C261.836 13.1933 262.202 12.9067 262.456 12.56C262.722 12.2 262.856 11.8267 262.856 11.44V9.66C262.722 9.75333 262.542 9.84 262.316 9.92C262.102 10 261.882 10.0533 261.656 10.08L259.916 10.34C259.156 10.4467 258.596 10.6533 258.236 10.96C257.876 11.2667 257.696 11.6867 257.696 12.22ZM272.178 4.42C272.925 4.42 273.538 4.57333 274.018 4.88C274.498 5.17333 274.831 5.60667 275.018 6.18C275.365 5.62 275.825 5.18667 276.398 4.88C276.971 4.57333 277.598 4.42 278.278 4.42C279.411 4.42 280.265 4.68 280.838 5.2C281.411 5.72 281.698 6.44 281.698 7.36V15H279.998V8.14C279.998 7.39333 279.838 6.84 279.518 6.48C279.198 6.10667 278.691 5.92 277.998 5.92C277.451 5.92 276.971 6.03333 276.558 6.26C276.145 6.48667 275.831 6.8 275.618 7.2C275.405 7.58667 275.298 8.02 275.298 8.5V15H273.598V8.14C273.598 7.39333 273.438 6.84 273.118 6.48C272.811 6.10667 272.325 5.92 271.658 5.92C271.125 5.92 270.645 6.05333 270.218 6.32C269.965 6.48 269.731 6.69333 269.518 6.96C269.318 7.22667 269.165 7.5 269.058 7.78C268.951 8.06 268.898 8.30667 268.898 8.52V15H267.198V4.66H268.798V6.18H268.838C269.611 5.00667 270.725 4.42 272.178 4.42ZM291.229 0.38C293.135 0.38 294.742 0.966667 296.049 2.14C297.369 3.34 298.029 4.80667 298.029 6.54C298.029 7.59333 297.775 8.56667 297.269 9.46C296.775 10.34 296.162 11.04 295.429 11.56C294.695 12.08 294.002 12.34 293.349 12.34C292.975 12.34 292.675 12.2267 292.449 12C292.222 11.7733 292.095 11.4533 292.069 11.04H292.009C291.622 11.48 291.215 11.8133 290.789 12.04C290.362 12.2667 289.942 12.38 289.529 12.38C288.995 12.38 288.509 12.2467 288.069 11.98C287.629 11.7 287.282 11.32 287.029 10.84C286.789 10.3467 286.669 9.8 286.669 9.2C286.669 7.72 287.122 6.40667 288.029 5.26C288.949 4.11333 290.062 3.54 291.369 3.54C291.889 3.54 292.335 3.68 292.709 3.96C293.095 4.24 293.395 4.64667 293.609 5.18L294.069 3.92H295.329L293.669 9.56C293.575 9.85333 293.509 10.0733 293.469 10.22C293.442 10.3533 293.429 10.4867 293.429 10.62C293.429 11.0333 293.589 11.24 293.909 11.24C294.522 11.24 295.135 10.74 295.749 9.74C296.362 8.71333 296.669 7.68 296.669 6.64C296.669 5.14667 296.135 3.91333 295.069 2.94C293.989 1.96667 292.715 1.48 291.249 1.48C289.582 1.48 288.149 2.12 286.949 3.4C285.762 4.69333 285.169 6.19333 285.169 7.9C285.169 9.66 285.775 11.1533 286.989 12.38C288.215 13.62 289.669 14.24 291.349 14.24C291.962 14.24 292.575 14.14 293.189 13.94C293.815 13.74 294.395 13.46 294.929 13.1C295.475 12.7267 295.935 12.3 296.309 11.82H297.569C297.155 12.5267 296.622 13.1467 295.969 13.68C295.315 14.2133 294.589 14.6267 293.789 14.92C292.989 15.2 292.162 15.34 291.309 15.34C289.895 15.34 288.615 15 287.469 14.32C286.322 13.6267 285.422 12.7067 284.769 11.56C284.129 10.4 283.809 9.14667 283.809 7.8C283.809 5.78667 284.535 4.04 285.989 2.56C287.482 1.10667 289.229 0.38 291.229 0.38ZM288.169 9.08C288.169 9.44 288.235 9.76667 288.369 10.06C288.515 10.3533 288.715 10.5867 288.969 10.76C289.235 10.9333 289.542 11.02 289.889 11.02C290.689 11.02 291.409 10.54 292.049 9.58C292.675 8.59333 292.989 7.65333 292.989 6.76C292.989 6.45333 292.909 6.16 292.749 5.88C292.602 5.58667 292.402 5.35333 292.149 5.18C291.895 4.99333 291.629 4.9 291.349 4.9C290.509 4.9 289.769 5.35333 289.129 6.26C288.489 7.18 288.169 8.12 288.169 9.08ZM304.445 4.42C305.152 4.42 305.772 4.57333 306.305 4.88C306.838 5.18667 307.252 5.60667 307.545 6.14H307.565V4.66H309.165V14.22C309.165 17.54 307.572 19.2 304.385 19.2C303.598 19.2 302.885 19.08 302.245 18.84C301.605 18.6133 301.092 18.2733 300.705 17.82C300.318 17.3667 300.112 16.8133 300.085 16.16H301.785C301.798 16.5067 301.932 16.8067 302.185 17.06C302.452 17.3133 302.785 17.5067 303.185 17.64C303.585 17.7733 304.012 17.84 304.465 17.84C305.465 17.84 306.232 17.5067 306.765 16.84C307.298 16.1733 307.565 15.1867 307.565 13.88V13.24H307.525C307.258 13.8133 306.832 14.2733 306.245 14.62C305.672 14.9533 305.025 15.12 304.305 15.12C303.385 15.12 302.572 14.9 301.865 14.46C301.172 14.02 300.632 13.4067 300.245 12.62C299.872 11.82 299.685 10.9067 299.685 9.88C299.685 8.82667 299.872 7.88667 300.245 7.06C300.618 6.23333 301.165 5.58667 301.885 5.12C302.605 4.65333 303.458 4.42 304.445 4.42ZM301.485 9.68C301.485 10.48 301.598 11.18 301.825 11.78C302.052 12.3667 302.385 12.82 302.825 13.14C303.265 13.46 303.792 13.62 304.405 13.62C305.018 13.62 305.558 13.4533 306.025 13.12C306.492 12.7867 306.852 12.32 307.105 11.72C307.358 11.12 307.485 10.42 307.485 9.62C307.485 8.88667 307.365 8.24667 307.125 7.7C306.898 7.14 306.565 6.70667 306.125 6.4C305.685 6.08 305.152 5.92 304.525 5.92C303.898 5.92 303.358 6.08 302.905 6.4C302.452 6.70667 302.098 7.14667 301.845 7.72C301.605 8.28 301.485 8.93333 301.485 9.68ZM316.029 4.42C317.509 4.42 318.663 4.95333 319.489 6.02C320.303 7.07333 320.709 8.44667 320.709 10.14V10.34H312.969V10.46C312.969 11.1133 313.096 11.6867 313.349 12.18C313.616 12.6733 313.989 13.06 314.469 13.34C314.963 13.6067 315.536 13.74 316.189 13.74C316.936 13.74 317.529 13.5667 317.969 13.22C318.423 12.8733 318.723 12.3733 318.869 11.72H320.549C320.323 12.8533 319.823 13.7267 319.049 14.34C318.289 14.94 317.316 15.24 316.129 15.24C315.049 15.24 314.136 15 313.389 14.52C312.669 14.04 312.116 13.3667 311.729 12.5C311.356 11.6333 311.169 10.72 311.169 9.76C311.169 8.22667 311.623 6.96 312.529 5.96C313.449 4.93333 314.616 4.42 316.029 4.42ZM318.909 8.84C318.883 8.29333 318.736 7.8 318.469 7.36C318.203 6.90667 317.843 6.55333 317.389 6.3C316.949 6.04667 316.456 5.92 315.909 5.92C315.376 5.92 314.896 6.04 314.469 6.28C314.043 6.52 313.696 6.86667 313.429 7.32C313.163 7.76 313.009 8.26667 312.969 8.84H318.909ZM326.931 4.42C327.971 4.42 328.865 4.65333 329.611 5.12C330.371 5.57333 330.951 6.21333 331.351 7.04C331.751 7.85333 331.951 8.78667 331.951 9.84C331.951 10.8933 331.745 11.8333 331.331 12.66C330.918 13.4733 330.331 14.1067 329.571 14.56C328.811 15.0133 327.931 15.24 326.931 15.24C325.931 15.24 325.051 15.02 324.291 14.58C323.545 14.14 322.958 13.5133 322.531 12.7C322.118 11.8733 321.911 10.92 321.911 9.84C321.911 8.74667 322.111 7.79333 322.511 6.98C322.925 6.16667 323.505 5.54 324.251 5.1C325.011 4.64667 325.905 4.42 326.931 4.42ZM323.711 9.84C323.711 10.6133 323.845 11.2933 324.111 11.88C324.391 12.4667 324.771 12.9267 325.251 13.26C325.745 13.58 326.305 13.74 326.931 13.74C327.545 13.74 328.098 13.58 328.591 13.26C329.085 12.9267 329.465 12.4667 329.731 11.88C330.011 11.2933 330.151 10.6133 330.151 9.84C330.151 9.06667 330.011 8.38667 329.731 7.8C329.451 7.2 329.065 6.74 328.571 6.42C328.091 6.08667 327.538 5.92 326.911 5.92C326.311 5.92 325.765 6.08 325.271 6.4C324.791 6.72 324.411 7.18 324.131 7.78C323.851 8.36667 323.711 9.05333 323.711 9.84ZM335.756 15H334.056V0.719999H335.756V15ZM342.629 4.42C344.016 4.42 345.003 4.66667 345.589 5.16C346.189 5.64 346.489 6.32 346.489 7.2V13.16C346.489 13.5467 346.669 13.74 347.029 13.74C347.203 13.74 347.376 13.7067 347.549 13.64V14.96C347.216 15.1467 346.809 15.24 346.329 15.24C345.863 15.24 345.503 15.1067 345.249 14.84C345.009 14.5733 344.889 14.1733 344.889 13.64C343.983 14.7067 342.769 15.24 341.249 15.24C340.183 15.24 339.343 14.9867 338.729 14.48C338.129 13.9733 337.829 13.26 337.829 12.34C337.829 11.4067 338.129 10.6733 338.729 10.14C339.289 9.59333 340.683 9.18 342.909 8.9C343.403 8.84667 343.783 8.76667 344.049 8.66C344.329 8.55333 344.523 8.42 344.629 8.26C344.749 8.08667 344.809 7.87333 344.809 7.62C344.809 7.04667 344.623 6.62 344.249 6.34C343.876 6.06 343.296 5.92 342.509 5.92C341.669 5.92 341.036 6.08 340.609 6.4C340.196 6.72 339.969 7.21333 339.929 7.88H338.229C338.283 6.73333 338.683 5.87333 339.429 5.3C340.189 4.71333 341.256 4.42 342.629 4.42ZM339.629 12.22C339.629 12.7 339.803 13.0733 340.149 13.34C340.509 13.6067 341.003 13.74 341.629 13.74C342.256 13.74 342.809 13.6333 343.289 13.42C343.769 13.1933 344.136 12.9067 344.389 12.56C344.656 12.2 344.789 11.8267 344.789 11.44V9.66C344.656 9.75333 344.476 9.84 344.249 9.92C344.036 10 343.816 10.0533 343.589 10.08L341.849 10.34C341.089 10.4467 340.529 10.6533 340.169 10.96C339.809 11.2667 339.629 11.6867 339.629 12.22ZM350.892 6.06H350.932C351.198 5.52667 351.612 5.12 352.172 4.84C352.745 4.56 353.432 4.42 354.232 4.42C355.205 4.42 356.045 4.65333 356.752 5.12C357.472 5.58667 358.025 6.23333 358.412 7.06C358.798 7.87333 358.992 8.80667 358.992 9.86C358.992 10.9133 358.798 11.8467 358.412 12.66C358.038 13.4733 357.492 14.1067 356.772 14.56C356.065 15.0133 355.232 15.24 354.272 15.24C353.592 15.24 352.952 15.1067 352.352 14.84C351.752 14.56 351.278 14.1533 350.932 13.62H350.892V15H349.192V0.719999H350.892V6.06ZM350.832 9.82C350.832 10.6067 350.958 11.3 351.212 11.9C351.478 12.4867 351.852 12.94 352.332 13.26C352.825 13.58 353.412 13.74 354.092 13.74C354.745 13.74 355.298 13.5867 355.752 13.28C356.218 12.96 356.572 12.5 356.812 11.9C357.065 11.3 357.192 10.58 357.192 9.74C357.192 9.00667 357.058 8.35333 356.792 7.78C356.538 7.19333 356.165 6.74 355.672 6.42C355.192 6.08667 354.625 5.92 353.972 5.92C353.318 5.92 352.752 6.08667 352.272 6.42C351.805 6.75333 351.445 7.21333 351.192 7.8C350.952 8.38667 350.832 9.06 350.832 9.82ZM363.587 15H361.367V12.78H363.587V15ZM370.853 4.42C372.333 4.42 373.487 4.95333 374.313 6.02C375.127 7.07333 375.533 8.44667 375.533 10.14V10.34H367.793V10.46C367.793 11.1133 367.92 11.6867 368.173 12.18C368.44 12.6733 368.813 13.06 369.293 13.34C369.787 13.6067 370.36 13.74 371.013 13.74C371.76 13.74 372.353 13.5667 372.793 13.22C373.247 12.8733 373.547 12.3733 373.693 11.72H375.373C375.147 12.8533 374.647 13.7267 373.873 14.34C373.113 14.94 372.14 15.24 370.953 15.24C369.873 15.24 368.96 15 368.213 14.52C367.493 14.04 366.94 13.3667 366.553 12.5C366.18 11.6333 365.993 10.72 365.993 9.76C365.993 8.22667 366.447 6.96 367.353 5.96C368.273 4.93333 369.44 4.42 370.853 4.42ZM373.733 8.84C373.707 8.29333 373.56 7.8 373.293 7.36C373.027 6.90667 372.667 6.55333 372.213 6.3C371.773 6.04667 371.28 5.92 370.733 5.92C370.2 5.92 369.72 6.04 369.293 6.28C368.867 6.52 368.52 6.86667 368.253 7.32C367.987 7.76 367.833 8.26667 367.793 8.84H373.733ZM386.536 15H384.836V13.6H384.796C384.529 14.12 384.102 14.5267 383.516 14.82C382.942 15.1 382.269 15.24 381.496 15.24C380.549 15.24 379.716 15.0133 378.996 14.56C378.276 14.0933 377.716 13.4533 377.316 12.64C376.929 11.8133 376.736 10.8667 376.736 9.8C376.736 8.74667 376.922 7.81333 377.296 7C377.669 6.18667 378.209 5.55333 378.916 5.1C379.622 4.64667 380.462 4.42 381.436 4.42C382.129 4.42 382.782 4.56667 383.396 4.86C384.022 5.14 384.489 5.53333 384.796 6.04H384.836V0.719999H386.536V15ZM378.536 9.92C378.536 10.6533 378.662 11.3133 378.916 11.9C379.182 12.4733 379.556 12.9267 380.036 13.26C380.516 13.58 381.082 13.74 381.736 13.74C382.402 13.74 382.969 13.58 383.436 13.26C383.916 12.9267 384.276 12.4667 384.516 11.88C384.769 11.28 384.896 10.6 384.896 9.84C384.896 9.05333 384.769 8.36667 384.516 7.78C384.262 7.19333 383.889 6.74 383.396 6.42C382.902 6.08667 382.309 5.92 381.616 5.92C380.976 5.92 380.422 6.08 379.956 6.4C379.489 6.72 379.136 7.18667 378.896 7.8C378.656 8.4 378.536 9.10667 378.536 9.92ZM390.851 11.7C390.851 12.1 390.938 12.4533 391.111 12.76C391.284 13.0667 391.524 13.3067 391.831 13.48C392.151 13.6533 392.524 13.74 392.951 13.74C393.604 13.74 394.158 13.6067 394.611 13.34C395.064 13.0733 395.411 12.7 395.651 12.22C395.891 11.74 396.011 11.1867 396.011 10.56V4.66H397.711V15H396.111V13.36H396.071C395.364 14.6133 394.244 15.24 392.711 15.24C391.511 15.24 390.618 14.9333 390.031 14.32C389.444 13.7067 389.151 12.7867 389.151 11.56V4.66H390.851V11.7ZM402.864 15H400.644V12.78H402.864V15ZM410.031 4.42C410.737 4.42 411.357 4.57333 411.891 4.88C412.424 5.18667 412.837 5.60667 413.131 6.14H413.151V4.66H414.751V14.22C414.751 17.54 413.157 19.2 409.971 19.2C409.184 19.2 408.471 19.08 407.831 18.84C407.191 18.6133 406.677 18.2733 406.291 17.82C405.904 17.3667 405.697 16.8133 405.671 16.16H407.371C407.384 16.5067 407.517 16.8067 407.771 17.06C408.037 17.3133 408.371 17.5067 408.771 17.64C409.171 17.7733 409.597 17.84 410.051 17.84C411.051 17.84 411.817 17.5067 412.351 16.84C412.884 16.1733 413.151 15.1867 413.151 13.88V13.24H413.111C412.844 13.8133 412.417 14.2733 411.831 14.62C411.257 14.9533 410.611 15.12 409.891 15.12C408.971 15.12 408.157 14.9 407.451 14.46C406.757 14.02 406.217 13.4067 405.831 12.62C405.457 11.82 405.271 10.9067 405.271 9.88C405.271 8.82667 405.457 7.88667 405.831 7.06C406.204 6.23333 406.751 5.58667 407.471 5.12C408.191 4.65333 409.044 4.42 410.031 4.42ZM407.071 9.68C407.071 10.48 407.184 11.18 407.411 11.78C407.637 12.3667 407.971 12.82 408.411 13.14C408.851 13.46 409.377 13.62 409.991 13.62C410.604 13.62 411.144 13.4533 411.611 13.12C412.077 12.7867 412.437 12.32 412.691 11.72C412.944 11.12 413.071 10.42 413.071 9.62C413.071 8.88667 412.951 8.24667 412.711 7.7C412.484 7.14 412.151 6.70667 411.711 6.4C411.271 6.08 410.737 5.92 410.111 5.92C409.484 5.92 408.944 6.08 408.491 6.4C408.037 6.70667 407.684 7.14667 407.431 7.72C407.191 8.28 407.071 8.93333 407.071 9.68ZM421.615 4.42C423.095 4.42 424.248 4.95333 425.075 6.02C425.888 7.07333 426.295 8.44667 426.295 10.14V10.34H418.555V10.46C418.555 11.1133 418.682 11.6867 418.935 12.18C419.202 12.6733 419.575 13.06 420.055 13.34C420.548 13.6067 421.122 13.74 421.775 13.74C422.522 13.74 423.115 13.5667 423.555 13.22C424.008 12.8733 424.308 12.3733 424.455 11.72H426.135C425.908 12.8533 425.408 13.7267 424.635 14.34C423.875 14.94 422.902 15.24 421.715 15.24C420.635 15.24 419.722 15 418.975 14.52C418.255 14.04 417.702 13.3667 417.315 12.5C416.942 11.6333 416.755 10.72 416.755 9.76C416.755 8.22667 417.208 6.96 418.115 5.96C419.035 4.93333 420.202 4.42 421.615 4.42ZM424.495 8.84C424.468 8.29333 424.322 7.8 424.055 7.36C423.788 6.90667 423.428 6.55333 422.975 6.3C422.535 6.04667 422.042 5.92 421.495 5.92C420.962 5.92 420.482 6.04 420.055 6.28C419.628 6.52 419.282 6.86667 419.015 7.32C418.748 7.76 418.595 8.26667 418.555 8.84H424.495Z" fill="#3F4145"/>
</svg>
