<svg width="205" height="20" viewBox="0 0 205 20" fill="none" xmlns="http://www.w3.org/2000/svg">
<path d="M6.64 19.24C5.48 19.24 4.46 18.9467 3.58 18.36C2.71333 17.7733 2.04 16.9333 1.56 15.84C1.08 14.76 0.84 13.5 0.84 12.06C0.84 10.74 1.04 9.56 1.44 8.52C1.85333 7.48 2.43333 6.64 3.18 6C3.92667 5.36 4.79333 4.97333 5.78 4.84H5.92C5.86667 4.54667 5.83333 4.22 5.82 3.86C5.80667 3.5 5.8 3.14667 5.8 2.8H7.46C7.46 3.14667 7.45333 3.5 7.44 3.86C7.42667 4.22 7.4 4.54667 7.36 4.84H7.48C8.48 4.97333 9.35333 5.36 10.1 6C10.8467 6.62667 11.42 7.46 11.82 8.5C12.22 9.54 12.42 10.7267 12.42 12.06C12.42 13.5 12.18 14.76 11.7 15.84C11.22 16.9333 10.54 17.7733 9.66 18.36C8.79333 18.9467 7.78667 19.24 6.64 19.24ZM6.64 17.72C7.50667 17.72 8.24 17.48 8.84 17C9.44 16.5333 9.88667 15.8733 10.18 15.02C10.4733 14.1667 10.62 13.18 10.62 12.06C10.62 11.06 10.5 10.1467 10.26 9.32C10.02 8.49333 9.66 7.81333 9.18 7.28C8.71333 6.73333 8.14667 6.38667 7.48 6.24L7.28 6.14C7.34667 6.55333 7.4 7 7.44 7.48C7.48 7.94667 7.5 8.36 7.5 8.72V12.26H5.78V8.72C5.78 8.32 5.8 7.88667 5.84 7.42C5.88 6.94 5.93333 6.51333 6 6.14L5.78 6.22C5.1 6.36667 4.52667 6.71333 4.06 7.26C3.59333 7.80667 3.24 8.49333 3 9.32C2.76 10.1467 2.64 11.06 2.64 12.06C2.64 13.18 2.78667 14.16 3.08 15C3.38667 15.8533 3.84 16.52 4.44 17C5.04 17.48 5.77333 17.72 6.64 17.72ZM18.4817 19.24C17.5217 19.24 16.7017 19.06 16.0217 18.7C15.3551 18.34 14.8417 17.8333 14.4817 17.18C14.1351 16.54 13.9617 15.8 13.9617 14.96C13.9617 14.6133 13.9951 14.28 14.0617 13.96C14.1417 13.64 14.2484 13.3067 14.3817 12.96H16.1217C16.0151 13.24 15.9284 13.5467 15.8617 13.88C15.7951 14.2133 15.7617 14.5133 15.7617 14.78C15.7617 15.6867 15.9884 16.4067 16.4417 16.94C16.9084 17.4733 17.5884 17.74 18.4817 17.74C19.4151 17.74 20.1017 17.4467 20.5417 16.86C20.9817 16.2867 21.2017 15.4067 21.2017 14.22V9.64C21.2017 8.61333 21.0017 7.79333 20.6017 7.18C20.2017 6.56667 19.5684 6.26 18.7017 6.26C18.1817 6.26 17.7284 6.36 17.3417 6.56C16.9684 6.76 16.6817 7.04 16.4817 7.4C16.2951 7.74667 16.2017 8.14 16.2017 8.58C16.2017 8.99333 16.2284 9.33333 16.2817 9.6H14.5217C14.4951 9.49333 14.4684 9.34 14.4417 9.14C14.4151 8.94 14.4017 8.73333 14.4017 8.52C14.4017 7.88 14.5751 7.27333 14.9217 6.7C15.2817 6.11333 15.7884 5.64667 16.4417 5.3C17.0951 4.94 17.8484 4.76 18.7017 4.76C19.6351 4.76 20.4217 4.98 21.0617 5.42C21.7017 5.84667 22.1751 6.42667 22.4817 7.16C22.7884 7.89333 22.9417 8.7 22.9417 9.58V14.38C22.9417 15.9667 22.5551 17.1733 21.7817 18C21.0084 18.8267 19.9084 19.24 18.4817 19.24ZM36.043 19C35.8963 18.28 35.403 17.74 34.563 17.38C33.723 17.02 32.663 16.84 31.383 16.84H26.683V15.52H28.563V15.44C27.843 15.24 27.203 14.8733 26.643 14.34C26.0963 13.7933 25.6696 13.14 25.363 12.38C25.0696 11.6067 24.923 10.7733 24.923 9.88C24.923 8.25333 25.223 6.99333 25.823 6.1C26.4363 5.20667 27.323 4.76 28.483 4.76C29.123 4.76 29.6696 4.93333 30.123 5.28C30.5763 5.61333 30.9096 6.12667 31.123 6.82H31.203C31.3763 6.12667 31.6896 5.61333 32.143 5.28C32.6096 4.93333 33.1563 4.76 33.783 4.76C34.463 4.76 35.003 4.92667 35.403 5.26C35.8163 5.58 36.1163 6.1 36.303 6.82H36.383C36.5963 6.14 36.9496 5.62667 37.443 5.28C37.9363 4.93333 38.4896 4.76 39.103 4.76C39.8763 4.76 40.523 4.97333 41.043 5.4C41.563 5.81333 41.9496 6.4 42.203 7.16C42.4696 7.92 42.603 8.80667 42.603 9.82C42.603 10.6467 42.523 11.4133 42.363 12.12C42.2163 12.8267 41.983 13.5 41.663 14.14H39.803C40.4696 12.8867 40.803 11.4733 40.803 9.9C40.803 8.67333 40.643 7.76 40.323 7.16C40.0163 6.56 39.543 6.26 38.903 6.26C38.383 6.26 37.9763 6.48 37.683 6.92C37.403 7.34667 37.263 7.92 37.263 8.64V12.26H35.463V8.64C35.463 7.86667 35.3296 7.28 35.063 6.88C34.7963 6.46667 34.3696 6.26 33.783 6.26C33.1963 6.26 32.763 6.47333 32.483 6.9C32.2163 7.31333 32.083 7.89333 32.083 8.64V12.26H30.283V8.64C30.283 7.89333 30.1363 7.31333 29.843 6.9C29.563 6.47333 29.1563 6.26 28.623 6.26C27.9563 6.26 27.4696 6.56 27.163 7.16C26.8696 7.76 26.723 8.66667 26.723 9.88C26.723 10.9333 26.9296 11.8467 27.343 12.62C27.7696 13.38 28.3096 13.98 28.963 14.42C29.6296 14.86 30.3363 15.1467 31.083 15.28C31.3763 15.3333 31.7963 15.3933 32.343 15.46C32.4496 15.4733 32.7096 15.5067 33.123 15.56C33.5496 15.6267 33.9296 15.6933 34.263 15.76C34.5963 15.84 34.8763 15.92 35.103 16C36.8363 16.5867 37.7563 17.5867 37.863 19H36.043ZM47.3566 6.88H45.1366V4.66H47.3566V6.88ZM47.3566 15H45.1366V12.78H47.3566V15Z" fill="#7E8898"/>
<path d="M61.2894 9.26H65.6494V10.62H61.2894V15H59.9294V10.62H55.5694V9.26H59.9294V4.88H61.2894V9.26ZM71.9416 0.819999C73.5816 0.819999 74.8016 1.38 75.6016 2.5C76.4016 3.62 76.8016 5.32 76.8016 7.6C76.8016 10.2 76.3949 12.1267 75.5816 13.38C74.7682 14.62 73.5349 15.24 71.8816 15.24C70.6416 15.24 69.6482 14.9267 68.9016 14.3C68.1549 13.6733 67.7149 12.7667 67.5816 11.58H69.2816C69.3749 12.26 69.6549 12.7933 70.1216 13.18C70.5882 13.5533 71.1749 13.74 71.8816 13.74C72.9216 13.74 73.6949 13.2933 74.2016 12.4C74.7216 11.5067 75.0149 10.1267 75.0816 8.26L75.0416 8.22C74.7082 8.83333 74.2482 9.31333 73.6616 9.66C73.0882 10.0067 72.4482 10.18 71.7416 10.18C70.8216 10.18 70.0282 9.98667 69.3616 9.6C68.6949 9.21333 68.1816 8.66667 67.8216 7.96C67.4616 7.24 67.2816 6.4 67.2816 5.44C67.2816 4.54667 67.4749 3.75333 67.8616 3.06C68.2616 2.35333 68.8149 1.80667 69.5216 1.42C70.2282 1.02 71.0349 0.819999 71.9416 0.819999ZM69.0816 5.68C69.0816 6.2 69.2082 6.69333 69.4616 7.16C69.7149 7.62667 70.0549 8 70.4816 8.28C70.9082 8.54667 71.3749 8.68 71.8816 8.68C72.4416 8.68 72.9416 8.54 73.3816 8.26C73.8216 7.98 74.1616 7.60667 74.4016 7.14C74.6549 6.66 74.7816 6.13333 74.7816 5.56C74.7816 4.94667 74.6682 4.4 74.4416 3.92C74.2149 3.42667 73.8749 3.04 73.4216 2.76C72.9816 2.46667 72.4549 2.32 71.8416 2.32C71.2816 2.32 70.7882 2.46 70.3616 2.74C69.9482 3.00667 69.6282 3.39333 69.4016 3.9C69.1882 4.40667 69.0816 5 69.0816 5.68ZM83.0548 0.819999C84.6948 0.819999 85.9148 1.38 86.7148 2.5C87.5148 3.62 87.9148 5.32 87.9148 7.6C87.9148 10.2 87.5082 12.1267 86.6948 13.38C85.8815 14.62 84.6482 15.24 82.9948 15.24C81.7548 15.24 80.7615 14.9267 80.0148 14.3C79.2682 13.6733 78.8282 12.7667 78.6948 11.58H80.3948C80.4882 12.26 80.7682 12.7933 81.2348 13.18C81.7015 13.5533 82.2882 13.74 82.9948 13.74C84.0348 13.74 84.8082 13.2933 85.3148 12.4C85.8348 11.5067 86.1282 10.1267 86.1948 8.26L86.1548 8.22C85.8215 8.83333 85.3615 9.31333 84.7748 9.66C84.2015 10.0067 83.5615 10.18 82.8548 10.18C81.9348 10.18 81.1415 9.98667 80.4748 9.6C79.8082 9.21333 79.2948 8.66667 78.9348 7.96C78.5748 7.24 78.3948 6.4 78.3948 5.44C78.3948 4.54667 78.5882 3.75333 78.9748 3.06C79.3748 2.35333 79.9282 1.80667 80.6348 1.42C81.3415 1.02 82.1482 0.819999 83.0548 0.819999ZM80.1948 5.68C80.1948 6.2 80.3215 6.69333 80.5748 7.16C80.8282 7.62667 81.1682 8 81.5948 8.28C82.0215 8.54667 82.4882 8.68 82.9948 8.68C83.5548 8.68 84.0548 8.54 84.4948 8.26C84.9348 7.98 85.2748 7.60667 85.5148 7.14C85.7682 6.66 85.8948 6.13333 85.8948 5.56C85.8948 4.94667 85.7815 4.4 85.5548 3.92C85.3282 3.42667 84.9882 3.04 84.5348 2.76C84.0948 2.46667 83.5682 2.32 82.9548 2.32C82.3948 2.32 81.9015 2.46 81.4748 2.74C81.0615 3.00667 80.7415 3.39333 80.5148 3.9C80.3015 4.40667 80.1948 5 80.1948 5.68ZM98.2281 2.56H92.5081L91.7481 6.64L91.7881 6.68C92.0948 6.34667 92.4681 6.09333 92.9081 5.92C93.3615 5.74667 93.8681 5.66 94.4281 5.66C95.3348 5.66 96.1348 5.86 96.8281 6.26C97.5215 6.64667 98.0548 7.20667 98.4281 7.94C98.8148 8.66 99.0081 9.51333 99.0081 10.5C99.0081 11.4067 98.8015 12.22 98.3881 12.94C97.9748 13.66 97.3881 14.2267 96.6281 14.64C95.8815 15.04 95.0215 15.24 94.0481 15.24C93.2215 15.24 92.4681 15.08 91.7881 14.76C91.1081 14.4267 90.5681 13.9533 90.1681 13.34C89.7681 12.7267 89.5548 12.0133 89.5281 11.2V11.18H91.2281C91.2548 11.6733 91.4015 12.1133 91.6681 12.5C91.9348 12.8867 92.2881 13.1933 92.7281 13.42C93.1681 13.6333 93.6615 13.74 94.2081 13.74C94.7815 13.74 95.2948 13.6067 95.7481 13.34C96.2148 13.06 96.5748 12.6667 96.8281 12.16C97.0815 11.6533 97.2081 11.06 97.2081 10.38C97.2081 9.75333 97.0681 9.2 96.7881 8.72C96.5081 8.22667 96.1215 7.84667 95.6281 7.58C95.1348 7.3 94.5948 7.16 94.0081 7.16C93.5015 7.16 93.0281 7.27333 92.5881 7.5C92.1615 7.71333 91.7548 8.04667 91.3681 8.5L89.9081 8.42L91.2281 1.06H98.2281V2.56ZM110.788 0.819999C111.681 0.819999 112.448 0.973332 113.088 1.28C113.741 1.58667 114.234 2.02667 114.568 2.6C114.914 3.16 115.088 3.82667 115.088 4.6C115.088 5.18667 114.914 5.73333 114.568 6.24C114.234 6.73333 113.754 7.13333 113.128 7.44V7.48C113.954 7.66667 114.588 8.06 115.028 8.66C115.468 9.26 115.688 10.0133 115.688 10.92C115.688 11.7867 115.481 12.5467 115.068 13.2C114.654 13.8533 114.081 14.36 113.348 14.72C112.614 15.0667 111.774 15.24 110.828 15.24C109.881 15.24 109.048 15.0667 108.328 14.72C107.621 14.36 107.068 13.84 106.668 13.16C106.281 12.4667 106.088 11.64 106.088 10.68V10.62H107.808C107.848 11.62 108.134 12.3933 108.668 12.94C109.201 13.4733 109.921 13.74 110.828 13.74C111.401 13.74 111.921 13.6267 112.388 13.4C112.854 13.16 113.221 12.8333 113.488 12.42C113.754 11.9933 113.888 11.52 113.888 11C113.888 10.44 113.761 9.96 113.508 9.56C113.254 9.14667 112.894 8.83333 112.428 8.62C111.974 8.39333 111.434 8.28 110.808 8.28C110.501 8.28 110.181 8.3 109.848 8.34V6.9C109.954 6.91333 110.168 6.92 110.488 6.92C111.034 6.92 111.521 6.82 111.948 6.62C112.388 6.42 112.721 6.14667 112.948 5.8C113.188 5.45333 113.308 5.05333 113.308 4.6C113.308 4.13333 113.201 3.73333 112.988 3.4C112.774 3.05333 112.474 2.78667 112.088 2.6C111.714 2.41333 111.281 2.32 110.788 2.32C109.961 2.32 109.308 2.59333 108.828 3.14C108.348 3.67333 108.101 4.42667 108.088 5.4H106.388C106.454 3.93333 106.868 2.80667 107.628 2.02C108.401 1.22 109.454 0.819999 110.788 0.819999ZM122.061 0.819999C122.928 0.819999 123.694 0.986666 124.361 1.32C125.041 1.65333 125.568 2.12667 125.941 2.74C126.314 3.35333 126.501 4.07333 126.501 4.9C126.501 5.87333 126.228 6.75333 125.681 7.54C125.148 8.32667 123.988 9.23333 122.201 10.26C121.481 10.6733 120.901 11.06 120.461 11.42C120.034 11.7667 119.714 12.1067 119.501 12.44C119.288 12.76 119.148 13.1133 119.081 13.5H126.361V15H117.101C117.194 13.84 117.494 12.8067 118.001 11.9C118.508 11.0333 119.468 10.1733 120.881 9.32C121.681 8.84 122.348 8.4 122.881 8C123.414 7.6 123.794 7.25333 124.021 6.96C124.474 6.38667 124.701 5.7 124.701 4.9C124.701 4.40667 124.581 3.96667 124.341 3.58C124.101 3.18 123.768 2.87333 123.341 2.66C122.928 2.43333 122.468 2.32 121.961 2.32C121.388 2.32 120.894 2.46667 120.481 2.76C120.068 3.05333 119.748 3.45333 119.521 3.96C119.308 4.46667 119.201 5.04667 119.201 5.7V5.84H117.501L117.481 5.48C117.481 4.56 117.668 3.74667 118.041 3.04C118.428 2.33333 118.961 1.78667 119.641 1.4C120.334 1.01333 121.141 0.819999 122.061 0.819999ZM138.741 0.819999C139.607 0.819999 140.374 0.986666 141.041 1.32C141.721 1.65333 142.247 2.12667 142.621 2.74C142.994 3.35333 143.181 4.07333 143.181 4.9C143.181 5.87333 142.907 6.75333 142.361 7.54C141.827 8.32667 140.667 9.23333 138.881 10.26C138.161 10.6733 137.581 11.06 137.141 11.42C136.714 11.7667 136.394 12.1067 136.181 12.44C135.967 12.76 135.827 13.1133 135.761 13.5H143.041V15H133.781C133.874 13.84 134.174 12.8067 134.681 11.9C135.187 11.0333 136.147 10.1733 137.561 9.32C138.361 8.84 139.027 8.4 139.561 8C140.094 7.6 140.474 7.25333 140.701 6.96C141.154 6.38667 141.381 5.7 141.381 4.9C141.381 4.40667 141.261 3.96667 141.021 3.58C140.781 3.18 140.447 2.87333 140.021 2.66C139.607 2.43333 139.147 2.32 138.641 2.32C138.067 2.32 137.574 2.46667 137.161 2.76C136.747 3.05333 136.427 3.45333 136.201 3.96C135.987 4.46667 135.881 5.04667 135.881 5.7V5.84H134.181L134.161 5.48C134.161 4.56 134.347 3.74667 134.721 3.04C135.107 2.33333 135.641 1.78667 136.321 1.4C137.014 1.01333 137.821 0.819999 138.741 0.819999ZM149.854 0.819999C150.721 0.819999 151.487 0.986666 152.154 1.32C152.834 1.65333 153.361 2.12667 153.734 2.74C154.107 3.35333 154.294 4.07333 154.294 4.9C154.294 5.87333 154.021 6.75333 153.474 7.54C152.941 8.32667 151.781 9.23333 149.994 10.26C149.274 10.6733 148.694 11.06 148.254 11.42C147.827 11.7667 147.507 12.1067 147.294 12.44C147.081 12.76 146.941 13.1133 146.874 13.5H154.154V15H144.894C144.987 13.84 145.287 12.8067 145.794 11.9C146.301 11.0333 147.261 10.1733 148.674 9.32C149.474 8.84 150.141 8.4 150.674 8C151.207 7.6 151.587 7.25333 151.814 6.96C152.267 6.38667 152.494 5.7 152.494 4.9C152.494 4.40667 152.374 3.96667 152.134 3.58C151.894 3.18 151.561 2.87333 151.134 2.66C150.721 2.43333 150.261 2.32 149.754 2.32C149.181 2.32 148.687 2.46667 148.274 2.76C147.861 3.05333 147.541 3.45333 147.314 3.96C147.101 4.46667 146.994 5.04667 146.994 5.7V5.84H145.294L145.274 5.48C145.274 4.56 145.461 3.74667 145.834 3.04C146.221 2.33333 146.754 1.78667 147.434 1.4C148.127 1.01333 148.934 0.819999 149.854 0.819999ZM160.967 0.819999C161.834 0.819999 162.601 0.986666 163.267 1.32C163.947 1.65333 164.474 2.12667 164.847 2.74C165.221 3.35333 165.407 4.07333 165.407 4.9C165.407 5.87333 165.134 6.75333 164.587 7.54C164.054 8.32667 162.894 9.23333 161.107 10.26C160.387 10.6733 159.807 11.06 159.367 11.42C158.941 11.7667 158.621 12.1067 158.407 12.44C158.194 12.76 158.054 13.1133 157.987 13.5H165.267V15H156.007C156.101 13.84 156.401 12.8067 156.907 11.9C157.414 11.0333 158.374 10.1733 159.787 9.32C160.587 8.84 161.254 8.4 161.787 8C162.321 7.6 162.701 7.25333 162.927 6.96C163.381 6.38667 163.607 5.7 163.607 4.9C163.607 4.40667 163.487 3.96667 163.247 3.58C163.007 3.18 162.674 2.87333 162.247 2.66C161.834 2.43333 161.374 2.32 160.867 2.32C160.294 2.32 159.801 2.46667 159.387 2.76C158.974 3.05333 158.654 3.45333 158.427 3.96C158.214 4.46667 158.107 5.04667 158.107 5.7V5.84H156.407L156.387 5.48C156.387 4.56 156.574 3.74667 156.947 3.04C157.334 2.33333 157.867 1.78667 158.547 1.4C159.241 1.01333 160.047 0.819999 160.967 0.819999ZM177.647 0.819999C178.514 0.819999 179.28 0.986666 179.947 1.32C180.627 1.65333 181.154 2.12667 181.527 2.74C181.9 3.35333 182.087 4.07333 182.087 4.9C182.087 5.87333 181.814 6.75333 181.267 7.54C180.734 8.32667 179.574 9.23333 177.787 10.26C177.067 10.6733 176.487 11.06 176.047 11.42C175.62 11.7667 175.3 12.1067 175.087 12.44C174.874 12.76 174.734 13.1133 174.667 13.5H181.947V15H172.687C172.78 13.84 173.08 12.8067 173.587 11.9C174.094 11.0333 175.054 10.1733 176.467 9.32C177.267 8.84 177.934 8.4 178.467 8C179 7.6 179.38 7.25333 179.607 6.96C180.06 6.38667 180.287 5.7 180.287 4.9C180.287 4.40667 180.167 3.96667 179.927 3.58C179.687 3.18 179.354 2.87333 178.927 2.66C178.514 2.43333 178.054 2.32 177.547 2.32C176.974 2.32 176.48 2.46667 176.067 2.76C175.654 3.05333 175.334 3.45333 175.107 3.96C174.894 4.46667 174.787 5.04667 174.787 5.7V5.84H173.087L173.067 5.48C173.067 4.56 173.254 3.74667 173.627 3.04C174.014 2.33333 174.547 1.78667 175.227 1.4C175.92 1.01333 176.727 0.819999 177.647 0.819999ZM188.76 0.819999C189.627 0.819999 190.394 0.986666 191.06 1.32C191.74 1.65333 192.267 2.12667 192.64 2.74C193.014 3.35333 193.2 4.07333 193.2 4.9C193.2 5.87333 192.927 6.75333 192.38 7.54C191.847 8.32667 190.687 9.23333 188.9 10.26C188.18 10.6733 187.6 11.06 187.16 11.42C186.734 11.7667 186.414 12.1067 186.2 12.44C185.987 12.76 185.847 13.1133 185.78 13.5H193.06V15H183.8C183.894 13.84 184.194 12.8067 184.7 11.9C185.207 11.0333 186.167 10.1733 187.58 9.32C188.38 8.84 189.047 8.4 189.58 8C190.114 7.6 190.494 7.25333 190.72 6.96C191.174 6.38667 191.4 5.7 191.4 4.9C191.4 4.40667 191.28 3.96667 191.04 3.58C190.8 3.18 190.467 2.87333 190.04 2.66C189.627 2.43333 189.167 2.32 188.66 2.32C188.087 2.32 187.594 2.46667 187.18 2.76C186.767 3.05333 186.447 3.45333 186.22 3.96C186.007 4.46667 185.9 5.04667 185.9 5.7V5.84H184.2L184.18 5.48C184.18 4.56 184.367 3.74667 184.74 3.04C185.127 2.33333 185.66 1.78667 186.34 1.4C187.034 1.01333 187.84 0.819999 188.76 0.819999ZM199.874 0.819999C200.74 0.819999 201.507 0.986666 202.174 1.32C202.854 1.65333 203.38 2.12667 203.754 2.74C204.127 3.35333 204.314 4.07333 204.314 4.9C204.314 5.87333 204.04 6.75333 203.494 7.54C202.96 8.32667 201.8 9.23333 200.014 10.26C199.294 10.6733 198.714 11.06 198.274 11.42C197.847 11.7667 197.527 12.1067 197.314 12.44C197.1 12.76 196.96 13.1133 196.894 13.5H204.174V15H194.914C195.007 13.84 195.307 12.8067 195.814 11.9C196.32 11.0333 197.28 10.1733 198.694 9.32C199.494 8.84 200.16 8.4 200.694 8C201.227 7.6 201.607 7.25333 201.834 6.96C202.287 6.38667 202.514 5.7 202.514 4.9C202.514 4.40667 202.394 3.96667 202.154 3.58C201.914 3.18 201.58 2.87333 201.154 2.66C200.74 2.43333 200.28 2.32 199.774 2.32C199.2 2.32 198.707 2.46667 198.294 2.76C197.88 3.05333 197.56 3.45333 197.334 3.96C197.12 4.46667 197.014 5.04667 197.014 5.7V5.84H195.314L195.294 5.48C195.294 4.56 195.48 3.74667 195.854 3.04C196.24 2.33333 196.774 1.78667 197.454 1.4C198.147 1.01333 198.954 0.819999 199.874 0.819999Z" fill="#3F4145"/>
</svg>
